<svg
   version="1.1"
   id="svg2"
   width="400"
   height="400"
   viewBox="0 0 400.00001 400.00001"
   sodipodi:docname="The Heritage Practice - Logo - Orange Logo Cream BG - CIRCLE.svg"
   inkscape:version="1.1.1 (3bf5ae0d25, 2021-09-20)"
   xmlns:inkscape="http://www.inkscape.org/namespaces/inkscape"
   xmlns:sodipodi="http://sodipodi.sourceforge.net/DTD/sodipodi-0.dtd"
   xmlns="http://www.w3.org/2000/svg"
   xmlns:svg="http://www.w3.org/2000/svg">
  <defs
     id="defs6" />
  <sodipodi:namedview
     id="namedview4"
     pagecolor="#ffffff"
     bordercolor="#000000"
     borderopacity="0.25"
     inkscape:showpageshadow="2"
     inkscape:pageopacity="0.0"
     inkscape:pagecheckerboard="0"
     inkscape:deskcolor="#d1d1d1"
     inkscape:pageshadow="0"
     showgrid="false"
     inkscape:zoom="0.98558883"
     inkscape:cx="426.14119"
     inkscape:cy="329.75212"
     inkscape:window-width="1920"
     inkscape:window-height="1001"
     inkscape:window-x="-9"
     inkscape:window-y="-9"
     inkscape:window-maximized="1"
     inkscape:current-layer="g8" />
  <g
     id="g8"
     inkscape:groupmode="layer"
     inkscape:label="ink_ext_XXXXXX"
     transform="matrix(1.3333333,0,0,-1.3333333,0,377.94667)">
    <g
       id="g21040"
       transform="matrix(1.0037383,0,0,1.0037383,7.6491874,-8.7140658)">
      <ellipse
         style="fill:#fae5d4;fill-opacity:1;stroke-width:14.1732;stroke-linecap:round;stroke-linejoin:round;paint-order:markers fill stroke"
         id="path18592"
         cx="141.82065"
         cy="-141.64456"
         transform="scale(1,-1)"
         rx="149.44135"
         ry="149.44144" />
      <path
         d="m 157.497,143.983 c -0.634,0 -0.967,-0.502 -0.967,-0.995 0,-0.258 0.086,-0.498 0.24,-0.679 0.178,-0.207 0.43,-0.316 0.727,-0.316 0.635,0 0.967,0.502 0.967,0.995 0,0.258 -0.085,0.498 -0.24,0.679 -0.178,0.207 -0.43,0.316 -0.727,0.316"
         style="fill:#e94724;fill-opacity:1;fill-rule:nonzero;stroke:none;stroke-width:0.1"
         id="path14" />
      <path
         d="m 159.65,144.429 c 0.634,0 0.967,0.502 0.967,0.995 0,0.258 -0.086,0.498 -0.24,0.679 -0.178,0.207 -0.43,0.316 -0.727,0.316 -0.297,0 -0.549,-0.109 -0.727,-0.316 -0.155,-0.181 -0.24,-0.421 -0.24,-0.679 0,-0.495 0.332,-0.995 0.967,-0.995"
         style="fill:#e94724;fill-opacity:1;fill-rule:nonzero;stroke:none;stroke-width:0.1"
         id="path16" />
      <path
         d="m 159.638,148.284 c 0.006,0 0.01,0 0.016,0 0.354,0 0.645,0.159 0.817,0.449 0.189,0.319 0.194,0.749 0.013,1.072 -0.168,0.297 -0.459,0.465 -0.823,0.469 -0.005,0 -0.01,0 -0.015,0 -0.355,0 -0.645,-0.159 -0.816,-0.449 -0.189,-0.319 -0.195,-0.749 -0.014,-1.072 0.167,-0.297 0.46,-0.465 0.822,-0.469"
         style="fill:#e94724;fill-opacity:1;fill-rule:nonzero;stroke:none;stroke-width:0.1"
         id="path18" />
      <path
         d="m 161.248,151.42 c 0.635,0 0.967,0.502 0.967,0.996 0,0.257 -0.085,0.497 -0.24,0.679 -0.178,0.207 -0.43,0.316 -0.727,0.316 -0.634,0 -0.967,-0.502 -0.967,-0.995 0,-0.258 0.086,-0.498 0.24,-0.679 0.178,-0.208 0.43,-0.317 0.727,-0.317"
         style="fill:#e94724;fill-opacity:1;fill-rule:nonzero;stroke:none;stroke-width:0.1"
         id="path20" />
      <path
         d="m 161.891,155.114 c 0.634,0 0.967,0.502 0.967,0.995 0,0.258 -0.086,0.498 -0.24,0.679 -0.178,0.207 -0.43,0.317 -0.727,0.317 -0.297,0 -0.549,-0.11 -0.727,-0.317 -0.155,-0.181 -0.24,-0.421 -0.24,-0.679 0,-0.495 0.332,-0.995 0.967,-0.995"
         style="fill:#e94724;fill-opacity:1;fill-rule:nonzero;stroke:none;stroke-width:0.1"
         id="path22" />
      <path
         d="m 162.693,158.967 c 0.635,0 0.967,0.502 0.967,0.995 0,0.257 -0.085,0.498 -0.24,0.679 -0.178,0.207 -0.429,0.316 -0.727,0.316 -0.634,0 -0.967,-0.502 -0.967,-0.995 0,-0.258 0.086,-0.498 0.24,-0.679 0.178,-0.207 0.43,-0.316 0.727,-0.316"
         style="fill:#e94724;fill-opacity:1;fill-rule:nonzero;stroke:none;stroke-width:0.1"
         id="path24" />
      <path
         d="m 161.726,148.244 c -0.155,-0.181 -0.24,-0.421 -0.24,-0.679 0,-0.495 0.332,-0.995 0.967,-0.995 0.634,0 0.967,0.502 0.967,0.995 0,0.258 -0.086,0.498 -0.24,0.679 -0.178,0.208 -0.43,0.317 -0.727,0.317 -0.297,0 -0.549,-0.109 -0.727,-0.317"
         style="fill:#e94724;fill-opacity:1;fill-rule:nonzero;stroke:none;stroke-width:0.1"
         id="path26" />
      <path
         d="m 162.766,151.086 c -0.155,-0.181 -0.24,-0.421 -0.24,-0.678 0,-0.496 0.332,-0.996 0.967,-0.996 0.634,0 0.967,0.502 0.967,0.996 0,0.257 -0.086,0.497 -0.24,0.678 -0.178,0.208 -0.43,0.317 -0.727,0.317 -0.297,0 -0.549,-0.109 -0.727,-0.317"
         style="fill:#e94724;fill-opacity:1;fill-rule:nonzero;stroke:none;stroke-width:0.1"
         id="path28" />
      <path
         d="m 168.48,151.235 c 0,0.257 -0.085,0.498 -0.24,0.679 -0.178,0.207 -0.43,0.316 -0.727,0.316 -0.634,0 -0.967,-0.502 -0.967,-0.995 0,-0.258 0.086,-0.498 0.24,-0.679 0.178,-0.207 0.43,-0.317 0.727,-0.317 0.635,0 0.967,0.503 0.967,0.996"
         style="fill:#e94724;fill-opacity:1;fill-rule:nonzero;stroke:none;stroke-width:0.1"
         id="path30" />
      <path
         d="m 163.741,153.33 c 0,-0.257 0.086,-0.497 0.24,-0.679 0.178,-0.207 0.43,-0.316 0.727,-0.316 0.635,0 0.967,0.502 0.967,0.995 0,0.258 -0.085,0.498 -0.24,0.679 -0.178,0.208 -0.43,0.317 -0.727,0.317 -0.634,0 -0.967,-0.502 -0.967,-0.996"
         style="fill:#e94724;fill-opacity:1;fill-rule:nonzero;stroke:none;stroke-width:0.1"
         id="path32" />
      <path
         d="m 165.937,157.36 c 0,0.257 -0.086,0.498 -0.24,0.679 -0.178,0.207 -0.43,0.316 -0.727,0.316 -0.635,0 -0.967,-0.502 -0.967,-0.995 0,-0.258 0.085,-0.498 0.24,-0.679 0.178,-0.207 0.429,-0.316 0.727,-0.316 0.634,0 0.967,0.502 0.967,0.995"
         style="fill:#e94724;fill-opacity:1;fill-rule:nonzero;stroke:none;stroke-width:0.1"
         id="path34" />
      <path
         d="m 167.672,154.47 c 0.634,0 0.967,0.502 0.967,0.995 0,0.258 -0.086,0.498 -0.24,0.679 -0.178,0.207 -0.43,0.317 -0.727,0.317 -0.635,0 -0.967,-0.502 -0.967,-0.996 0,-0.257 0.085,-0.497 0.24,-0.679 0.178,-0.207 0.429,-0.316 0.727,-0.316"
         style="fill:#e94724;fill-opacity:1;fill-rule:nonzero;stroke:none;stroke-width:0.1"
         id="path36" />
      <path
         d="m 171.044,154.695 c -0.634,0 -0.967,-0.502 -0.967,-0.996 0,-0.257 0.086,-0.497 0.24,-0.679 0.178,-0.207 0.43,-0.316 0.727,-0.316 0.635,0 0.967,0.502 0.967,0.995 0,0.258 -0.085,0.498 -0.24,0.679 -0.178,0.207 -0.43,0.317 -0.727,0.317"
         style="fill:#e94724;fill-opacity:1;fill-rule:nonzero;stroke:none;stroke-width:0.1"
         id="path38" />
      <path
         d="m 169.802,157.491 c 0,-0.496 0.331,-0.995 0.967,-0.995 0.635,0 0.967,0.502 0.967,0.995 0,0.257 -0.085,0.498 -0.24,0.679 -0.178,0.207 -0.43,0.316 -0.727,0.316 -0.297,0 -0.549,-0.109 -0.727,-0.316 -0.155,-0.181 -0.24,-0.422 -0.24,-0.679"
         style="fill:#e94724;fill-opacity:1;fill-rule:nonzero;stroke:none;stroke-width:0.1"
         id="path40" />
      <path
         d="m 173.945,157.211 c -0.635,0 -0.967,-0.502 -0.967,-0.995 0,-0.257 0.085,-0.498 0.24,-0.679 0.178,-0.207 0.429,-0.316 0.727,-0.316 0.634,0 0.967,0.502 0.967,0.995 0,0.258 -0.086,0.498 -0.24,0.679 -0.178,0.207 -0.43,0.316 -0.727,0.316"
         style="fill:#e94724;fill-opacity:1;fill-rule:nonzero;stroke:none;stroke-width:0.1"
         id="path42" />
      <path
         d="m 177.467,157.362 c 0.635,0 0.967,0.502 0.967,0.996 0,0.257 -0.085,0.497 -0.24,0.678 -0.178,0.208 -0.429,0.317 -0.727,0.317 -0.634,0 -0.967,-0.502 -0.967,-0.995 0,-0.258 0.086,-0.498 0.24,-0.679 0.178,-0.208 0.43,-0.317 0.727,-0.317"
         style="fill:#e94724;fill-opacity:1;fill-rule:nonzero;stroke:none;stroke-width:0.1"
         id="path44" />
      <path
         d="m 175.415,160.132 c 0.635,0 0.967,0.502 0.967,0.996 0,0.257 -0.085,0.497 -0.24,0.678 -0.178,0.208 -0.43,0.317 -0.727,0.317 -0.634,0 -0.967,-0.502 -0.967,-0.995 0,-0.258 0.086,-0.498 0.24,-0.679 0.178,-0.208 0.43,-0.317 0.727,-0.317"
         style="fill:#e94724;fill-opacity:1;fill-rule:nonzero;stroke:none;stroke-width:0.1"
         id="path46" />
      <path
         d="m 168.604,159.37 c 0,0.258 -0.085,0.498 -0.24,0.679 -0.178,0.208 -0.429,0.317 -0.727,0.317 -0.634,0 -0.967,-0.502 -0.967,-0.996 0,-0.257 0.087,-0.497 0.24,-0.679 0.178,-0.207 0.43,-0.316 0.727,-0.316 0.636,0 0.967,0.502 0.967,0.995"
         style="fill:#e94724;fill-opacity:1;fill-rule:nonzero;stroke:none;stroke-width:0.1"
         id="path48" />
      <path
         d="m 171.806,161.381 c -0.178,0.207 -0.43,0.316 -0.727,0.316 -0.297,0 -0.549,-0.109 -0.727,-0.316 -0.155,-0.181 -0.24,-0.422 -0.24,-0.679 0,-0.496 0.331,-0.995 0.967,-0.995 0.634,0 0.967,0.502 0.967,0.995 0,0.257 -0.087,0.498 -0.24,0.679"
         style="fill:#e94724;fill-opacity:1;fill-rule:nonzero;stroke:none;stroke-width:0.1"
         id="path50" />
      <path
         d="m 173.39,162.819 c 0.636,0 0.967,0.502 0.967,0.996 0,0.257 -0.085,0.497 -0.24,0.679 -0.178,0.207 -0.429,0.316 -0.727,0.316 -0.634,0 -0.967,-0.502 -0.967,-0.995 0,-0.258 0.087,-0.498 0.24,-0.679 0.178,-0.208 0.43,-0.317 0.727,-0.317"
         style="fill:#e94724;fill-opacity:1;fill-rule:nonzero;stroke:none;stroke-width:0.1"
         id="path52" />
      <path
         d="m 170.143,162.769 c 0.178,-0.207 0.43,-0.316 0.727,-0.316 0.635,0 0.967,0.502 0.967,0.995 0,0.258 -0.085,0.498 -0.24,0.679 -0.178,0.207 -0.43,0.316 -0.727,0.316 -0.634,0 -0.967,-0.502 -0.967,-0.995 0,-0.258 0.086,-0.498 0.24,-0.679"
         style="fill:#e94724;fill-opacity:1;fill-rule:nonzero;stroke:none;stroke-width:0.1"
         id="path54" />
      <path
         d="m 166.416,162.359 c -0.178,0.207 -0.43,0.316 -0.727,0.316 -0.634,0 -0.967,-0.502 -0.967,-0.995 0,-0.258 0.086,-0.498 0.24,-0.679 0.178,-0.207 0.43,-0.317 0.727,-0.317 0.635,0 0.967,0.502 0.967,0.996 0,0.257 -0.085,0.497 -0.24,0.679"
         style="fill:#e94724;fill-opacity:1;fill-rule:nonzero;stroke:none;stroke-width:0.1"
         id="path56" />
      <path
         d="m 165.52,164.356 c 0,-0.258 0.086,-0.498 0.24,-0.679 0.178,-0.207 0.43,-0.316 0.727,-0.316 0.635,0 0.967,0.502 0.967,0.995 0,0.258 -0.085,0.498 -0.24,0.679 -0.178,0.207 -0.429,0.316 -0.727,0.316 -0.634,0 -0.967,-0.502 -0.967,-0.995"
         style="fill:#e94724;fill-opacity:1;fill-rule:nonzero;stroke:none;stroke-width:0.1"
         id="path58" />
      <path
         d="m 163.749,162.701 c 0.634,0 0.967,0.502 0.967,0.996 0,0.257 -0.087,0.497 -0.241,0.679 -0.177,0.207 -0.43,0.316 -0.726,0.316 -0.297,0 -0.549,-0.109 -0.727,-0.316 -0.155,-0.182 -0.24,-0.422 -0.24,-0.679 0,-0.496 0.331,-0.996 0.967,-0.996"
         style="fill:#e94724;fill-opacity:1;fill-rule:nonzero;stroke:none;stroke-width:0.1"
         id="path60" />
      <path
         d="m 164.335,165.648 c 0.634,0 0.967,0.502 0.967,0.996 0,0.257 -0.087,0.497 -0.24,0.679 -0.178,0.207 -0.43,0.316 -0.727,0.316 -0.636,0 -0.967,-0.502 -0.967,-0.995 0,-0.258 0.085,-0.498 0.24,-0.679 0.178,-0.208 0.429,-0.317 0.727,-0.317"
         style="fill:#e94724;fill-opacity:1;fill-rule:nonzero;stroke:none;stroke-width:0.1"
         id="path62" />
      <path
         d="m 169.117,166.72 c -0.635,0 -0.967,-0.502 -0.967,-0.995 0,-0.258 0.085,-0.498 0.24,-0.679 0.178,-0.208 0.429,-0.317 0.727,-0.317 0.634,0 0.967,0.502 0.967,0.996 0,0.257 -0.086,0.497 -0.24,0.679 -0.178,0.207 -0.43,0.316 -0.727,0.316"
         style="fill:#e94724;fill-opacity:1;fill-rule:nonzero;stroke:none;stroke-width:0.1"
         id="path64" />
      <path
         d="m 171.418,165.205 c 0.634,0 0.967,0.502 0.967,0.996 0,0.257 -0.086,0.497 -0.24,0.678 -0.178,0.208 -0.43,0.317 -0.727,0.317 -0.297,0 -0.549,-0.109 -0.727,-0.317 -0.155,-0.181 -0.24,-0.421 -0.24,-0.678 0,-0.496 0.332,-0.996 0.967,-0.996"
         style="fill:#e94724;fill-opacity:1;fill-rule:nonzero;stroke:none;stroke-width:0.1"
         id="path66" />
      <path
         d="m 166.957,168.632 c -0.296,0 -0.549,-0.109 -0.727,-0.316 -0.154,-0.181 -0.24,-0.422 -0.24,-0.679 0,-0.496 0.332,-0.996 0.967,-0.996 0.635,0 0.967,0.503 0.967,0.996 0,0.257 -0.086,0.498 -0.24,0.679 -0.178,0.207 -0.43,0.316 -0.727,0.316"
         style="fill:#e94724;fill-opacity:1;fill-rule:nonzero;stroke:none;stroke-width:0.1"
         id="path68" />
      <path
         d="m 168.306,168.145 c 0.178,-0.207 0.43,-0.316 0.727,-0.316 0.636,0 0.967,0.502 0.967,0.995 0,0.258 -0.085,0.498 -0.24,0.679 -0.178,0.208 -0.429,0.317 -0.727,0.317 -0.634,0 -0.967,-0.502 -0.967,-0.996 0,-0.257 0.087,-0.497 0.24,-0.679"
         style="fill:#e94724;fill-opacity:1;fill-rule:nonzero;stroke:none;stroke-width:0.1"
         id="path70" />
      <path
         d="m 165.666,171.961 c 0.634,0 0.967,0.502 0.967,0.995 0,0.258 -0.086,0.498 -0.24,0.679 -0.178,0.208 -0.43,0.317 -0.727,0.317 -0.635,0 -0.967,-0.502 -0.967,-0.996 0,-0.257 0.085,-0.497 0.24,-0.678 0.178,-0.208 0.429,-0.317 0.727,-0.317"
         style="fill:#e94724;fill-opacity:1;fill-rule:nonzero;stroke:none;stroke-width:0.1"
         id="path72" />
      <path
         d="m 165.093,168.338 c 0.635,0 0.967,0.502 0.967,0.997 0,0.258 -0.085,0.498 -0.24,0.679 -0.178,0.207 -0.429,0.316 -0.727,0.316 -0.634,0 -0.967,-0.502 -0.967,-0.997 0,-0.255 0.085,-0.498 0.24,-0.679 0.178,-0.207 0.43,-0.316 0.727,-0.316"
         style="fill:#e94724;fill-opacity:1;fill-rule:nonzero;stroke:none;stroke-width:0.1"
         id="path74" />
      <path
         d="m 166.273,171.001 c 0,-0.258 0.086,-0.498 0.24,-0.679 0.178,-0.208 0.43,-0.317 0.727,-0.317 0.635,0 0.967,0.502 0.967,0.996 0,0.257 -0.085,0.497 -0.24,0.679 -0.178,0.207 -0.43,0.316 -0.727,0.316 -0.634,0 -0.967,-0.502 -0.967,-0.995"
         style="fill:#e94724;fill-opacity:1;fill-rule:nonzero;stroke:none;stroke-width:0.1"
         id="path76" />
      <path
         d="m 169.397,162.407 c 0,0.257 -0.085,0.497 -0.24,0.679 -0.178,0.207 -0.43,0.316 -0.727,0.316 -0.634,0 -0.967,-0.502 -0.967,-0.995 0,-0.258 0.086,-0.498 0.24,-0.679 0.178,-0.208 0.43,-0.317 0.727,-0.317 0.635,0 0.967,0.502 0.967,0.996"
         style="fill:#e94724;fill-opacity:1;fill-rule:nonzero;stroke:none;stroke-width:0.1"
         id="path78" />
      <path
         d="m 184.126,157.633 c 0.014,0 0.028,0 0.042,0 0.343,0 0.626,0.15 0.8,0.43 0.197,0.314 0.212,0.744 0.04,1.069 -0.161,0.304 -0.449,0.476 -0.81,0.489 -0.016,0 -0.03,0 -0.044,0 -0.343,0 -0.625,-0.15 -0.8,-0.43 -0.196,-0.314 -0.212,-0.744 -0.039,-1.069 0.16,-0.304 0.448,-0.476 0.811,-0.489"
         style="fill:#e94724;fill-opacity:1;fill-rule:nonzero;stroke:none;stroke-width:0.1"
         id="path80" />
      <path
         d="m 184.949,155.963 c 0.16,-0.304 0.448,-0.476 0.809,-0.489 0.016,0 0.03,0 0.044,0 0.343,0 0.625,0.151 0.8,0.43 0.197,0.312 0.212,0.744 0.038,1.07 -0.16,0.303 -0.447,0.475 -0.81,0.488 -0.015,0 -0.029,0 -0.043,0 -0.343,0 -0.626,-0.15 -0.799,-0.429 -0.197,-0.313 -0.213,-0.745 -0.039,-1.07"
         style="fill:#e94724;fill-opacity:1;fill-rule:nonzero;stroke:none;stroke-width:0.1"
         id="path82" />
      <path
         d="m 182.957,155.419 c 0.014,0 0.028,0 0.042,0 0.343,0 0.626,0.151 0.8,0.43 0.197,0.315 0.212,0.745 0.04,1.07 -0.161,0.303 -0.449,0.476 -0.81,0.489 -0.016,0 -0.03,0 -0.044,0 -0.343,0 -0.625,-0.151 -0.8,-0.43 -0.196,-0.314 -0.212,-0.744 -0.039,-1.07 0.16,-0.303 0.448,-0.476 0.811,-0.489"
         style="fill:#e94724;fill-opacity:1;fill-rule:nonzero;stroke:none;stroke-width:0.1"
         id="path84" />
      <path
         d="m 186.379,154.649 c -0.196,-0.312 -0.211,-0.745 -0.038,-1.07 0.161,-0.303 0.448,-0.476 0.81,-0.489 0.015,0 0.03,0 0.044,0 0.342,0 0.625,0.151 0.8,0.43 0.196,0.312 0.211,0.745 0.038,1.07 -0.161,0.303 -0.448,0.476 -0.81,0.489 -0.015,0 -0.029,0 -0.044,0 -0.342,0 -0.625,-0.151 -0.8,-0.43"
         style="fill:#e94724;fill-opacity:1;fill-rule:nonzero;stroke:none;stroke-width:0.1"
         id="path86" />
      <path
         d="m 184.577,155.096 c -0.014,0 -0.028,0 -0.042,0 -0.343,0 -0.626,-0.15 -0.799,-0.43 -0.196,-0.312 -0.213,-0.744 -0.039,-1.069 0.16,-0.304 0.448,-0.476 0.81,-0.489 0.015,0 0.029,0 0.043,0 0.343,0 0.626,0.15 0.8,0.43 0.197,0.312 0.212,0.744 0.038,1.069 -0.16,0.304 -0.447,0.476 -0.811,0.489"
         style="fill:#e94724;fill-opacity:1;fill-rule:nonzero;stroke:none;stroke-width:0.1"
         id="path88" />
      <path
         d="m 181.691,152.662 h 0.001 c 0.013,0 0.027,0 0.04,0 0.609,0 0.944,0.478 0.962,0.961 0.017,0.493 -0.297,1.006 -0.931,1.03 -0.016,0 -0.03,0 -0.044,0 -0.343,0 -0.625,-0.15 -0.8,-0.43 -0.196,-0.312 -0.212,-0.742 -0.039,-1.069 0.16,-0.304 0.448,-0.478 0.811,-0.492"
         style="fill:#e94724;fill-opacity:1;fill-rule:nonzero;stroke:none;stroke-width:0.1"
         id="path90" />
      <path
         d="m 186.365,152.854 h -0.001 c -0.642,0.029 -0.984,-0.467 -1.002,-0.96 -0.017,-0.493 0.297,-1.006 0.932,-1.03 0.013,0 0.028,0 0.041,0 0.609,0 0.944,0.478 0.961,0.96 0.018,0.494 -0.297,1.007 -0.931,1.03"
         style="fill:#e94724;fill-opacity:1;fill-rule:nonzero;stroke:none;stroke-width:0.1"
         id="path92" />
      <path
         d="m 188.931,150.691 h 10e-4 c 0.013,0 0.028,0 0.041,0 0.609,0 0.944,0.478 0.961,0.961 0.018,0.495 -0.297,1.006 -0.931,1.03 -0.013,0 -0.027,0 -0.04,0 -0.609,0 -0.944,-0.478 -0.962,-0.96 -0.017,-0.496 0.297,-1.007 0.93,-1.031"
         style="fill:#e94724;fill-opacity:1;fill-rule:nonzero;stroke:none;stroke-width:0.1"
         id="path94" />
      <path
         d="m 189.482,149.646 c -0.017,-0.496 0.297,-1.007 0.93,-1.031 h 0.001 c 0.013,0 0.028,0 0.041,0 0.609,0 0.944,0.478 0.961,0.961 0.018,0.495 -0.297,1.006 -0.931,1.03 -0.013,0 -0.027,0 -0.04,0 -0.609,0 -0.944,-0.478 -0.962,-0.96"
         style="fill:#e94724;fill-opacity:1;fill-rule:nonzero;stroke:none;stroke-width:0.1"
         id="path96" />
      <path
         d="m 190.93,146.638 c -0.018,-0.494 0.296,-1.007 0.932,-1.031 0.013,0 0.027,0 0.04,0 0.609,0 0.944,0.478 0.962,0.961 0.017,0.493 -0.297,1.006 -0.931,1.03 h -0.001 c -0.014,0 -0.028,0 -0.041,0 -0.609,0 -0.944,-0.478 -0.961,-0.96"
         style="fill:#e94724;fill-opacity:1;fill-rule:nonzero;stroke:none;stroke-width:0.1"
         id="path98" />
      <path
         d="m 192.322,144.254 c -0.017,-0.493 0.297,-1.006 0.932,-1.03 0.013,0 0.028,0 0.041,0 0.608,0 0.943,0.478 0.96,0.96 0.018,0.494 -0.296,1.006 -0.93,1.03 h -10e-4 c -0.013,0 -0.027,0 -0.04,0 -0.609,0 -0.944,-0.478 -0.962,-0.96"
         style="fill:#e94724;fill-opacity:1;fill-rule:nonzero;stroke:none;stroke-width:0.1"
         id="path100" />
      <path
         d="m 183.198,152.582 c -0.639,0.041 -0.985,-0.467 -1.002,-0.961 -0.018,-0.495 0.297,-1.006 0.93,-1.03 0.015,0 0.029,0 0.043,0 0.343,0 0.626,0.151 0.801,0.43 0.196,0.312 0.212,0.742 0.039,1.07 -0.161,0.303 -0.448,0.478 -0.81,0.491 h -0.001"
         style="fill:#e94724;fill-opacity:1;fill-rule:nonzero;stroke:none;stroke-width:0.1"
         id="path102" />
      <path
         d="m 179.953,149.6 h 0.001 c 0.013,0 0.027,0 0.041,0 0.607,0 0.943,0.478 0.96,0.96 0.017,0.496 -0.296,1.007 -0.931,1.031 -0.013,0 -0.027,0 -0.04,0 -0.609,0 -0.944,-0.478 -0.962,-0.961 -0.017,-0.493 0.297,-1.006 0.931,-1.03"
         style="fill:#e94724;fill-opacity:1;fill-rule:nonzero;stroke:none;stroke-width:0.1"
         id="path104" />
      <path
         d="m 186.615,149.39 c -0.017,-0.493 0.296,-1.006 0.93,-1.03 h 0.001 c 0.013,0 0.027,0 0.041,0 0.609,0 0.944,0.478 0.961,0.96 0.018,0.494 -0.297,1.007 -0.932,1.031 -0.013,0 -0.027,0 -0.04,0 -0.608,0 -0.943,-0.478 -0.961,-0.961"
         style="fill:#e94724;fill-opacity:1;fill-rule:nonzero;stroke:none;stroke-width:0.1"
         id="path106" />
      <path
         d="m 185.379,148.705 c 0.196,0.312 0.211,0.744 0.038,1.07 -0.161,0.303 -0.448,0.475 -0.811,0.488 -0.014,0 -0.029,0 -0.043,0 -0.342,0 -0.625,-0.15 -0.8,-0.43 -0.196,-0.312 -0.211,-0.744 -0.038,-1.069 0.16,-0.304 0.448,-0.476 0.81,-0.489 0.015,0 0.029,0 0.044,0 0.342,0 0.625,0.15 0.8,0.43"
         style="fill:#e94724;fill-opacity:1;fill-rule:nonzero;stroke:none;stroke-width:0.1"
         id="path108" />
      <path
         d="m 185.866,145.743 c 0.343,0 0.626,0.15 0.801,0.43 0.196,0.312 0.211,0.742 0.039,1.069 -0.161,0.304 -0.449,0.478 -0.811,0.492 h -0.001 c -0.013,0 -0.028,0 -0.041,0 -0.608,0 -0.943,-0.479 -0.96,-0.961 -0.018,-0.493 0.296,-1.006 0.93,-1.03 0.015,0 0.029,0 0.043,0"
         style="fill:#e94724;fill-opacity:1;fill-rule:nonzero;stroke:none;stroke-width:0.1"
         id="path110" />
      <path
         d="m 188.777,145.732 c 0.016,0 0.03,0 0.044,0 0.343,0 0.625,0.15 0.8,0.43 0.196,0.312 0.212,0.744 0.038,1.069 -0.16,0.304 -0.447,0.476 -0.81,0.489 -0.015,0 -0.029,0 -0.043,0 -0.343,0 -0.626,-0.15 -0.8,-0.43 -0.197,-0.312 -0.212,-0.744 -0.039,-1.069 0.161,-0.304 0.448,-0.476 0.81,-0.489"
         style="fill:#e94724;fill-opacity:1;fill-rule:nonzero;stroke:none;stroke-width:0.1"
         id="path112" />
      <path
         d="m 190.177,145.19 h -0.002 c -0.013,0 -0.027,0 -0.04,0 -0.609,0 -0.944,-0.478 -0.962,-0.96 -0.017,-0.495 0.297,-1.006 0.931,-1.03 0.014,0 0.028,0 0.041,0 0.609,0 0.944,0.478 0.961,0.96 0.018,0.496 -0.296,1.006 -0.929,1.03"
         style="fill:#e94724;fill-opacity:1;fill-rule:nonzero;stroke:none;stroke-width:0.1"
         id="path114" />
      <path
         d="m 181.781,147.583 c 0.343,0 0.626,0.151 0.8,0.43 0.197,0.312 0.212,0.744 0.038,1.07 -0.16,0.303 -0.447,0.475 -0.809,0.488 -0.016,0 -0.03,0 -0.044,0 -0.343,0 -0.625,-0.15 -0.8,-0.43 -0.197,-0.312 -0.212,-0.744 -0.038,-1.069 0.16,-0.304 0.447,-0.476 0.81,-0.489 0.015,0 0.029,0 0.043,0"
         style="fill:#e94724;fill-opacity:1;fill-rule:nonzero;stroke:none;stroke-width:0.1"
         id="path116" />
      <path
         d="m 178.159,148.773 c -0.628,0.015 -0.985,-0.468 -1.002,-0.961 -0.018,-0.495 0.297,-1.006 0.931,-1.03 0.013,0 0.027,0 0.04,0 0.609,0 0.944,0.478 0.962,0.962 0.017,0.494 -0.296,1.005 -0.93,1.029 h -0.001"
         style="fill:#e94724;fill-opacity:1;fill-rule:nonzero;stroke:none;stroke-width:0.1"
         id="path118" />
      <path
         d="m 182.126,145.826 c -0.017,-0.494 0.297,-1.007 0.931,-1.031 h 0.001 c 0.013,0 0.028,0 0.041,0 0.609,0 0.944,0.478 0.961,0.961 0.018,0.493 -0.297,1.006 -0.932,1.03 -0.62,0.031 -0.984,-0.467 -1.002,-0.96"
         style="fill:#e94724;fill-opacity:1;fill-rule:nonzero;stroke:none;stroke-width:0.1"
         id="path120" />
      <path
         d="m 179.927,145.363 c -0.015,0 -0.03,0 -0.044,0 -0.342,0 -0.625,-0.151 -0.8,-0.43 -0.196,-0.312 -0.212,-0.744 -0.038,-1.07 0.16,-0.303 0.447,-0.476 0.81,-0.489 0.015,0 0.029,0 0.044,0 0.342,0 0.625,0.151 0.8,0.43 0.196,0.312 0.211,0.745 0.038,1.07 -0.161,0.303 -0.448,0.476 -0.81,0.489"
         style="fill:#e94724;fill-opacity:1;fill-rule:nonzero;stroke:none;stroke-width:0.1"
         id="path122" />
      <path
         d="m 176.481,143.837 c 0.014,0 0.029,0 0.043,0 0.342,0 0.625,0.151 0.8,0.43 0.196,0.312 0.212,0.744 0.038,1.07 -0.16,0.303 -0.449,0.476 -0.81,0.489 -0.015,0 -0.029,0 -0.043,0 -0.343,0 -0.626,-0.151 -0.801,-0.43 -0.196,-0.313 -0.211,-0.745 -0.038,-1.07 0.161,-0.303 0.448,-0.476 0.811,-0.489"
         style="fill:#e94724;fill-opacity:1;fill-rule:nonzero;stroke:none;stroke-width:0.1"
         id="path124" />
      <path
         d="m 168.59,131.79 c -0.015,0 -0.029,0 -0.043,0 -0.343,0 -0.626,-0.151 -0.801,-0.43 -0.196,-0.312 -0.211,-0.745 -0.038,-1.07 0.161,-0.303 0.448,-0.476 0.81,-0.489 0.015,0 0.03,0 0.044,0 0.342,0 0.625,0.151 0.8,0.43 0.196,0.312 0.212,0.745 0.038,1.07 -0.16,0.303 -0.447,0.476 -0.81,0.489"
         style="fill:#e94724;fill-opacity:1;fill-rule:nonzero;stroke:none;stroke-width:0.1"
         id="path126" />
      <path
         d="m 170.41,134.831 c -0.349,-0.005 -0.661,-0.138 -0.843,-0.43 -0.196,-0.315 -0.212,-0.745 -0.039,-1.07 0.16,-0.303 0.448,-0.476 0.81,-0.489 0.015,0 0.029,0 0.043,0 0.343,0 0.626,0.151 0.8,0.43 0.197,0.314 0.212,0.744 0.04,1.07 -0.161,0.303 -0.449,0.476 -0.811,0.489"
         style="fill:#e94724;fill-opacity:1;fill-rule:nonzero;stroke:none;stroke-width:0.1"
         id="path128" />
      <path
         d="m 174.483,134.804 c -0.358,-0.004 -0.66,-0.139 -0.843,-0.43 -0.196,-0.312 -0.212,-0.744 -0.038,-1.069 0.16,-0.304 0.448,-0.476 0.81,-0.489 0.015,0 0.029,0 0.044,0 0.342,0 0.625,0.15 0.8,0.43 0.196,0.312 0.211,0.744 0.038,1.069 -0.161,0.304 -0.448,0.476 -0.811,0.489"
         style="fill:#e94724;fill-opacity:1;fill-rule:nonzero;stroke:none;stroke-width:0.1"
         id="path130" />
      <path
         d="m 173.399,137.596 c -0.16,0.304 -0.447,0.476 -0.81,0.489 -0.015,0 -0.029,0 -0.043,0 -0.343,0 -0.626,-0.15 -0.801,-0.43 -0.196,-0.312 -0.211,-0.744 -0.038,-1.069 0.161,-0.304 0.448,-0.476 0.81,-0.489 0.015,0 0.03,0 0.044,0 0.343,0 0.625,0.15 0.8,0.43 0.196,0.312 0.212,0.744 0.038,1.069"
         style="fill:#e94724;fill-opacity:1;fill-rule:nonzero;stroke:none;stroke-width:0.1"
         id="path132" />
      <path
         d="m 178.561,137.149 c -0.345,0.011 -0.661,-0.14 -0.842,-0.43 -0.197,-0.315 -0.212,-0.745 -0.039,-1.07 0.16,-0.303 0.448,-0.476 0.809,-0.489 0.016,0 0.03,0 0.044,0 0.343,0 0.625,0.151 0.8,0.43 0.197,0.315 0.212,0.745 0.039,1.07 -0.16,0.303 -0.448,0.476 -0.811,0.489"
         style="fill:#e94724;fill-opacity:1;fill-rule:nonzero;stroke:none;stroke-width:0.1"
         id="path134" />
      <path
         d="m 174.064,141.606 c -0.378,0.002 -0.662,-0.14 -0.844,-0.43 -0.196,-0.312 -0.212,-0.744 -0.038,-1.069 0.16,-0.304 0.447,-0.476 0.81,-0.489 0.015,0 0.029,0 0.043,0 0.343,0 0.626,0.15 0.8,0.43 0.197,0.312 0.212,0.744 0.039,1.069 -0.161,0.304 -0.448,0.476 -0.81,0.489"
         style="fill:#e94724;fill-opacity:1;fill-rule:nonzero;stroke:none;stroke-width:0.1"
         id="path136" />
      <path
         d="m 177.913,141.274 c 0.197,0.313 0.212,0.745 0.038,1.07 -0.16,0.303 -0.448,0.476 -0.811,0.489 -0.352,0.011 -0.66,-0.14 -0.842,-0.43 -0.197,-0.312 -0.212,-0.744 -0.038,-1.07 0.16,-0.303 0.447,-0.476 0.809,-0.489 0.016,0 0.03,0 0.044,0 0.343,0 0.626,0.151 0.8,0.43"
         style="fill:#e94724;fill-opacity:1;fill-rule:nonzero;stroke:none;stroke-width:0.1"
         id="path138" />
      <path
         d="m 176.126,138.958 c -0.381,0.013 -0.661,-0.139 -0.843,-0.43 -0.197,-0.314 -0.212,-0.744 -0.039,-1.069 0.16,-0.304 0.448,-0.476 0.809,-0.489 0.016,0 0.03,0 0.044,0 0.343,0 0.625,0.15 0.8,0.43 0.197,0.314 0.212,0.744 0.039,1.069 -0.16,0.304 -0.448,0.476 -0.81,0.489"
         style="fill:#e94724;fill-opacity:1;fill-rule:nonzero;stroke:none;stroke-width:0.1"
         id="path140" />
      <path
         d="m 179.917,141.379 h -0.001 c -0.013,0 -0.027,0 -0.04,0 -0.609,0 -0.945,-0.478 -0.962,-0.96 -0.017,-0.496 0.297,-1.007 0.931,-1.031 0.013,0 0.027,0 0.04,0 0.609,0 0.944,0.478 0.962,0.961 0.017,0.495 -0.297,1.006 -0.93,1.03"
         style="fill:#e94724;fill-opacity:1;fill-rule:nonzero;stroke:none;stroke-width:0.1"
         id="path142" />
      <path
         d="m 183.191,143.27 h -0.001 c -0.631,0.021 -0.984,-0.468 -1.002,-0.961 -0.017,-0.493 0.297,-1.006 0.932,-1.03 0.013,0 0.028,0 0.041,0 0.608,0 0.943,0.478 0.96,0.96 0.018,0.496 -0.295,1.007 -0.93,1.031"
         style="fill:#e94724;fill-opacity:1;fill-rule:nonzero;stroke:none;stroke-width:0.1"
         id="path144" />
      <path
         d="m 186.852,144.811 c -0.345,0.008 -0.661,-0.14 -0.843,-0.43 -0.196,-0.313 -0.211,-0.745 -0.038,-1.07 0.161,-0.303 0.448,-0.476 0.81,-0.489 0.015,0 0.03,0 0.044,0 0.342,0 0.625,0.151 0.8,0.43 0.196,0.312 0.211,0.744 0.038,1.07 -0.16,0.303 -0.448,0.476 -0.811,0.489"
         style="fill:#e94724;fill-opacity:1;fill-rule:nonzero;stroke:none;stroke-width:0.1"
         id="path146" />
      <path
         d="m 186.46,141.104 c -0.365,0.009 -0.661,-0.14 -0.842,-0.43 -0.197,-0.312 -0.212,-0.744 -0.039,-1.069 0.161,-0.304 0.448,-0.476 0.81,-0.489 0.016,0 0.03,0 0.044,0 0.343,0 0.625,0.15 0.8,0.43 0.196,0.312 0.212,0.744 0.038,1.069 -0.16,0.304 -0.447,0.476 -0.811,0.489"
         style="fill:#e94724;fill-opacity:1;fill-rule:nonzero;stroke:none;stroke-width:0.1"
         id="path148" />
      <path
         d="m 182.172,139.391 c -0.015,0 -0.03,0 -0.044,0 -0.342,0 -0.625,-0.151 -0.8,-0.43 -0.196,-0.315 -0.211,-0.745 -0.039,-1.07 0.16,-0.303 0.449,-0.476 0.81,-0.489 0.015,0 0.029,0 0.043,0 0.343,0 0.626,0.151 0.801,0.43 0.196,0.314 0.211,0.744 0.039,1.07 -0.161,0.303 -0.449,0.476 -0.81,0.489"
         style="fill:#e94724;fill-opacity:1;fill-rule:nonzero;stroke:none;stroke-width:0.1"
         id="path150" />
      <path
         d="m 173.545,160.11 c -0.297,0 -0.549,-0.109 -0.727,-0.316 -0.155,-0.181 -0.24,-0.421 -0.24,-0.679 0,-0.496 0.332,-0.995 0.967,-0.995 0.636,0 0.967,0.502 0.967,0.995 0,0.258 -0.085,0.498 -0.24,0.679 -0.178,0.207 -0.43,0.316 -0.727,0.316"
         style="fill:#e94724;fill-opacity:1;fill-rule:nonzero;stroke:none;stroke-width:0.1"
         id="path152" />
      <path
         d="m 189.05,142.521 h -0.001 c -0.013,0 -0.027,0 -0.04,0 -0.609,0 -0.944,-0.478 -0.962,-0.961 -0.017,-0.495 0.297,-1.006 0.931,-1.03 0.013,0 0.027,0 0.04,0 0.61,0 0.945,0.478 0.962,0.961 0.018,0.495 -0.297,1.006 -0.93,1.03"
         style="fill:#e94724;fill-opacity:1;fill-rule:nonzero;stroke:none;stroke-width:0.1"
         id="path154" />
      <path
         d="m 142.37,182.38 c 0.005,0 0.009,0 0.015,0 0.355,0 0.645,0.159 0.817,0.45 0.189,0.318 0.195,0.748 0.013,1.071 -0.167,0.297 -0.459,0.465 -0.821,0.47 -0.37,0.015 -0.659,-0.155 -0.833,-0.45 -0.189,-0.319 -0.194,-0.749 -0.013,-1.072 0.167,-0.297 0.459,-0.465 0.822,-0.469"
         style="fill:#e94724;fill-opacity:1;fill-rule:nonzero;stroke:none;stroke-width:0.1"
         id="path156" />
      <path
         d="m 145.571,179.494 c 0.005,0 0.01,0 0.015,0 0.355,0 0.645,0.16 0.818,0.45 0.188,0.319 0.194,0.749 0.013,1.072 -0.167,0.297 -0.46,0.465 -0.822,0.469 -0.005,0 -0.009,0 -0.013,0 -0.357,0 -0.648,-0.162 -0.82,-0.452 -0.189,-0.319 -0.193,-0.751 -0.012,-1.072 0.167,-0.297 0.458,-0.462 0.821,-0.467"
         style="fill:#e94724;fill-opacity:1;fill-rule:nonzero;stroke:none;stroke-width:0.1"
         id="path158" />
      <path
         d="m 147.917,176.986 c 0.005,0 0.009,0 0.013,0 0.357,0 0.648,0.162 0.82,0.452 0.189,0.319 0.193,0.749 0.012,1.072 -0.168,0.297 -0.46,0.462 -0.822,0.467 -0.37,0.006 -0.658,-0.155 -0.832,-0.45 -0.189,-0.319 -0.195,-0.749 -0.014,-1.072 0.169,-0.296 0.46,-0.465 0.823,-0.469"
         style="fill:#e94724;fill-opacity:1;fill-rule:nonzero;stroke:none;stroke-width:0.1"
         id="path160" />
      <path
         d="m 148.837,175.137 c 0.169,-0.297 0.46,-0.463 0.822,-0.467 0.006,0 0.01,0 0.016,0 0.354,0 0.645,0.159 0.817,0.45 0.189,0.318 0.194,0.748 0.013,1.072 -0.167,0.296 -0.459,0.464 -0.822,0.469 -0.004,0 -0.008,0 -0.013,0 -0.357,0 -0.648,-0.162 -0.821,-0.452 -0.187,-0.319 -0.193,-0.749 -0.012,-1.072"
         style="fill:#e94724;fill-opacity:1;fill-rule:nonzero;stroke:none;stroke-width:0.1"
         id="path162" />
      <path
         d="m 151.861,172.485 c 0.004,0 0.008,0 0.013,0 0.357,0 0.647,0.162 0.819,0.452 0.189,0.319 0.194,0.749 0.012,1.072 -0.168,0.296 -0.46,0.462 -0.821,0.467 -0.006,0 -0.01,0 -0.016,0 -0.354,0 -0.645,-0.16 -0.816,-0.45 -0.189,-0.319 -0.194,-0.749 -0.013,-1.072 0.167,-0.297 0.459,-0.465 0.822,-0.469"
         style="fill:#e94724;fill-opacity:1;fill-rule:nonzero;stroke:none;stroke-width:0.1"
         id="path164" />
      <path
         d="m 152.88,170.998 c 0.167,-0.296 0.46,-0.464 0.822,-0.469 0.005,0 0.01,0 0.015,0 0.355,0 0.645,0.159 0.817,0.45 0.188,0.318 0.194,0.749 0.013,1.072 -0.167,0.296 -0.46,0.465 -0.822,0.469 -0.006,0 -0.01,0 -0.015,0 -0.355,0 -0.645,-0.159 -0.817,-0.45 -0.189,-0.318 -0.194,-0.748 -0.013,-1.072"
         style="fill:#e94724;fill-opacity:1;fill-rule:nonzero;stroke:none;stroke-width:0.1"
         id="path166" />
      <path
         d="m 154.763,169.06 c 0.167,-0.297 0.459,-0.465 0.822,-0.469 0.004,0 0.008,0 0.013,0 0.357,0 0.647,0.161 0.819,0.452 0.189,0.318 0.194,0.748 0.012,1.071 -0.168,0.297 -0.46,0.463 -0.821,0.468 -0.006,0 -0.01,0 -0.016,0 -0.354,0 -0.645,-0.16 -0.816,-0.45 -0.189,-0.319 -0.194,-0.749 -0.013,-1.072"
         style="fill:#e94724;fill-opacity:1;fill-rule:nonzero;stroke:none;stroke-width:0.1"
         id="path168" />
      <path
         d="m 156.663,166.943 c 0.168,-0.297 0.459,-0.463 0.822,-0.467 0.005,0 0.01,0 0.015,0 0.355,0 0.645,0.159 0.818,0.449 0.188,0.319 0.194,0.749 0.013,1.072 -0.167,0.297 -0.46,0.465 -0.822,0.469 -0.004,0 -0.009,0 -0.013,0 -0.357,0 -0.649,-0.161 -0.821,-0.452 -0.188,-0.318 -0.193,-0.748 -0.012,-1.071"
         style="fill:#e94724;fill-opacity:1;fill-rule:nonzero;stroke:none;stroke-width:0.1"
         id="path170" />
      <path
         d="m 143.137,178.442 c -0.189,-0.319 -0.194,-0.749 -0.013,-1.072 0.167,-0.297 0.459,-0.465 0.822,-0.469 0.005,0 0.009,0 0.015,0 0.355,0 0.645,0.159 0.817,0.45 0.189,0.318 0.195,0.748 0.014,1.071 -0.167,0.297 -0.46,0.465 -0.822,0.47 -0.362,0.019 -0.657,-0.155 -0.833,-0.45"
         style="fill:#e94724;fill-opacity:1;fill-rule:nonzero;stroke:none;stroke-width:0.1"
         id="path172" />
      <path
         d="m 145.516,176.661 c -0.004,0 -0.009,0 -0.013,0 -0.626,0 -0.959,-0.494 -0.965,-0.985 -0.005,-0.493 0.321,-0.997 0.955,-1.006 0.006,0 0.01,0 0.016,0 0.354,0 0.645,0.159 0.816,0.45 0.189,0.318 0.194,0.748 0.013,1.072 -0.167,0.296 -0.459,0.464 -0.822,0.469"
         style="fill:#e94724;fill-opacity:1;fill-rule:nonzero;stroke:none;stroke-width:0.1"
         id="path174" />
      <path
         d="m 147.181,174.535 c -0.367,-0.013 -0.66,-0.157 -0.834,-0.452 -0.188,-0.319 -0.193,-0.749 -0.012,-1.072 0.168,-0.297 0.459,-0.463 0.822,-0.467 0.005,0 0.009,0 0.015,0 0.355,0 0.645,0.159 0.817,0.45 0.189,0.318 0.195,0.748 0.014,1.071 -0.168,0.297 -0.46,0.465 -0.822,0.47"
         style="fill:#e94724;fill-opacity:1;fill-rule:nonzero;stroke:none;stroke-width:0.1"
         id="path176" />
      <path
         d="m 149.569,172.823 c -0.006,0 -0.01,0 -0.016,0 -0.354,0 -0.645,-0.159 -0.817,-0.449 -0.189,-0.319 -0.194,-0.749 -0.013,-1.072 0.167,-0.297 0.459,-0.465 0.822,-0.469 0.004,0 0.008,0 0.013,0 0.357,0 0.648,0.161 0.821,0.451 0.187,0.319 0.193,0.749 0.012,1.072 -0.169,0.297 -0.46,0.463 -0.822,0.467"
         style="fill:#e94724;fill-opacity:1;fill-rule:nonzero;stroke:none;stroke-width:0.1"
         id="path178" />
      <path
         d="m 151.653,168.691 c 0.005,0 0.009,0 0.013,0 0.357,0 0.649,0.162 0.821,0.452 0.188,0.319 0.193,0.749 0.012,1.072 -0.168,0.297 -0.46,0.463 -0.822,0.467 -0.361,0.017 -0.657,-0.155 -0.832,-0.45 -0.189,-0.318 -0.195,-0.748 -0.014,-1.072 0.167,-0.296 0.46,-0.464 0.822,-0.469"
         style="fill:#e94724;fill-opacity:1;fill-rule:nonzero;stroke:none;stroke-width:0.1"
         id="path180" />
      <path
         d="m 153.513,168.466 c -0.378,0.005 -0.659,-0.157 -0.834,-0.452 -0.187,-0.318 -0.193,-0.748 -0.012,-1.071 0.168,-0.297 0.46,-0.463 0.822,-0.467 0.006,0 0.01,0 0.015,0 0.355,0 0.645,0.159 0.818,0.449 0.189,0.319 0.194,0.749 0.013,1.072 -0.167,0.297 -0.46,0.465 -0.822,0.469"
         style="fill:#e94724;fill-opacity:1;fill-rule:nonzero;stroke:none;stroke-width:0.1"
         id="path182" />
      <path
         d="m 155.3,163.834 c 0.004,0 0.009,0 0.013,0 0.626,0 0.96,0.496 0.966,0.987 0.005,0.493 -0.321,0.998 -0.955,1.006 -0.005,0 -0.009,0 -0.013,0 -0.627,0 -0.961,-0.495 -0.966,-0.986 -0.006,-0.494 0.321,-0.998 0.955,-1.007"
         style="fill:#e94724;fill-opacity:1;fill-rule:nonzero;stroke:none;stroke-width:0.1"
         id="path184" />
      <path
         d="m 142.777,171.693 c -0.006,0 -0.01,0 -0.016,0 -0.354,0 -0.645,-0.16 -0.817,-0.45 -0.189,-0.319 -0.194,-0.749 -0.013,-1.072 0.167,-0.297 0.459,-0.465 0.822,-0.469 0.005,0 0.01,0 0.015,0 0.355,0 0.645,0.159 0.817,0.45 0.189,0.318 0.195,0.748 0.014,1.071 -0.167,0.297 -0.46,0.465 -0.822,0.47"
         style="fill:#e94724;fill-opacity:1;fill-rule:nonzero;stroke:none;stroke-width:0.1"
         id="path186" />
      <path
         d="m 146.783,170.045 c 0.188,0.318 0.194,0.748 0.012,1.071 -0.168,0.297 -0.459,0.463 -0.821,0.467 -0.342,0 -0.66,-0.155 -0.834,-0.449 -0.188,-0.319 -0.193,-0.749 -0.012,-1.072 0.168,-0.297 0.459,-0.463 0.822,-0.467 0.005,0 0.009,0 0.015,0 0.356,0 0.646,0.159 0.818,0.45"
         style="fill:#e94724;fill-opacity:1;fill-rule:nonzero;stroke:none;stroke-width:0.1"
         id="path188" />
      <path
         d="m 148.469,168.868 c -0.357,0 -0.648,-0.162 -0.82,-0.452 -0.189,-0.319 -0.193,-0.749 -0.012,-1.072 0.168,-0.297 0.459,-0.462 0.822,-0.467 0.005,0 0.01,0 0.015,0 0.355,0 0.645,0.16 0.816,0.45 0.189,0.319 0.195,0.749 0.013,1.072 -0.166,0.297 -0.459,0.465 -0.821,0.469 -0.005,0 -0.009,0 -0.013,0"
         style="fill:#e94724;fill-opacity:1;fill-rule:nonzero;stroke:none;stroke-width:0.1"
         id="path190" />
      <path
         d="m 151.975,165.113 c 0.189,0.319 0.195,0.749 0.013,1.072 -0.167,0.297 -0.459,0.465 -0.821,0.47 -0.379,0.01 -0.659,-0.158 -0.833,-0.452 -0.189,-0.319 -0.193,-0.749 -0.012,-1.072 0.168,-0.297 0.459,-0.463 0.822,-0.467 0.005,0 0.009,0 0.015,0 0.355,0 0.645,0.159 0.816,0.449"
         style="fill:#e94724;fill-opacity:1;fill-rule:nonzero;stroke:none;stroke-width:0.1"
         id="path192" />
      <path
         d="m 152.43,161.516 c 0.167,-0.297 0.46,-0.465 0.822,-0.469 0.005,0 0.009,0 0.013,0 0.357,0 0.648,0.161 0.82,0.452 0.189,0.318 0.193,0.748 0.012,1.071 -0.168,0.297 -0.461,0.463 -0.822,0.468 -0.005,0 -0.01,0 -0.015,0 -0.355,0 -0.645,-0.16 -0.816,-0.45 -0.189,-0.319 -0.195,-0.749 -0.014,-1.072"
         style="fill:#e94724;fill-opacity:1;fill-rule:nonzero;stroke:none;stroke-width:0.1"
         id="path194" />
      <path
         d="m 144.341,167.705 c -0.189,-0.319 -0.193,-0.749 -0.012,-1.072 0.168,-0.297 0.46,-0.463 0.822,-0.467 0.005,0 0.009,0 0.015,0 0.355,0 0.645,0.159 0.817,0.449 0.189,0.319 0.195,0.749 0.013,1.072 -0.168,0.297 -0.459,0.465 -0.822,0.469 -0.005,0 -0.009,0 -0.014,0 -0.357,0 -0.647,-0.161 -0.819,-0.451"
         style="fill:#e94724;fill-opacity:1;fill-rule:nonzero;stroke:none;stroke-width:0.1"
         id="path196" />
      <path
         d="m 146.404,162.983 c 0.188,0.319 0.194,0.749 0.013,1.072 -0.167,0.297 -0.46,0.465 -0.822,0.469 -0.005,0 -0.009,0 -0.013,0 -0.357,0 -0.648,-0.161 -0.82,-0.452 -0.189,-0.318 -0.193,-0.751 -0.012,-1.072 0.167,-0.296 0.458,-0.462 0.821,-0.467 0.005,0 0.01,0 0.015,0 0.355,0 0.645,0.16 0.818,0.45"
         style="fill:#e94724;fill-opacity:1;fill-rule:nonzero;stroke:none;stroke-width:0.1"
         id="path198" />
      <path
         d="m 150.091,162.326 c 0.188,0.319 0.194,0.749 0.013,1.072 -0.169,0.297 -0.461,0.463 -0.822,0.467 -0.006,0 -0.01,0 -0.016,0 -0.354,0 -0.645,-0.159 -0.817,-0.45 -0.189,-0.318 -0.194,-0.749 -0.013,-1.072 0.167,-0.296 0.459,-0.465 0.822,-0.469 0.004,0 0.008,0 0.013,0 0.357,0 0.648,0.162 0.82,0.452"
         style="fill:#e94724;fill-opacity:1;fill-rule:nonzero;stroke:none;stroke-width:0.1"
         id="path200" />
      <path
         d="m 150.344,157.192 c 0.005,0 0.009,0 0.015,0 0.355,0 0.645,0.159 0.817,0.45 0.189,0.318 0.195,0.748 0.013,1.071 -0.166,0.297 -0.459,0.465 -0.821,0.47 -0.348,-0.009 -0.659,-0.155 -0.833,-0.45 -0.189,-0.319 -0.194,-0.749 -0.013,-1.072 0.167,-0.297 0.459,-0.465 0.822,-0.469"
         style="fill:#e94724;fill-opacity:1;fill-rule:nonzero;stroke:none;stroke-width:0.1"
         id="path202" />
      <path
         d="m 143.312,161.298 c -0.006,0 -0.01,0 -0.016,0 -0.354,0 -0.645,-0.16 -0.817,-0.45 -0.189,-0.319 -0.195,-0.749 -0.013,-1.072 0.167,-0.297 0.459,-0.465 0.822,-0.469 0.005,0 0.009,0 0.015,0 0.355,0 0.645,0.159 0.817,0.45 0.189,0.318 0.195,0.748 0.013,1.071 -0.167,0.297 -0.459,0.465 -0.821,0.47"
         style="fill:#e94724;fill-opacity:1;fill-rule:nonzero;stroke:none;stroke-width:0.1"
         id="path204" />
      <path
         d="m 148.003,159.896 c -0.168,0.297 -0.46,0.465 -0.822,0.47 -0.006,0 -0.01,0 -0.016,0 -0.354,0 -0.645,-0.16 -0.817,-0.45 -0.189,-0.319 -0.194,-0.749 -0.013,-1.072 0.167,-0.297 0.459,-0.465 0.822,-0.469 0.005,0 0.009,0 0.015,0 0.355,0 0.645,0.159 0.817,0.45 0.189,0.318 0.195,0.748 0.014,1.071"
         style="fill:#e94724;fill-opacity:1;fill-rule:nonzero;stroke:none;stroke-width:0.1"
         id="path206" />
      <path
         d="m 147.181,154.692 c -0.006,0 -0.01,0 -0.016,0 -0.354,0 -0.645,-0.159 -0.817,-0.449 -0.189,-0.319 -0.194,-0.749 -0.013,-1.072 0.167,-0.297 0.459,-0.465 0.822,-0.469 0.004,0 0.008,0 0.013,0 0.357,0 0.647,0.161 0.819,0.452 0.189,0.318 0.194,0.75 0.012,1.071 -0.167,0.297 -0.459,0.463 -0.82,0.467"
         style="fill:#e94724;fill-opacity:1;fill-rule:nonzero;stroke:none;stroke-width:0.1"
         id="path208" />
      <path
         d="m 144.329,150.067 c 0.168,-0.297 0.46,-0.463 0.822,-0.467 0.005,0 0.009,0 0.015,0 0.355,0 0.645,0.159 0.817,0.45 0.189,0.318 0.195,0.748 0.013,1.071 -0.168,0.297 -0.459,0.465 -0.822,0.47 -0.348,-0.009 -0.659,-0.158 -0.833,-0.452 -0.189,-0.319 -0.193,-0.749 -0.012,-1.072"
         style="fill:#e94724;fill-opacity:1;fill-rule:nonzero;stroke:none;stroke-width:0.1"
         id="path210" />
      <path
         d="m 145.151,155.668 c 0.004,0 0.008,0 0.013,0 0.357,0 0.647,0.162 0.819,0.452 0.189,0.319 0.194,0.749 0.012,1.072 -0.168,0.297 -0.459,0.463 -0.821,0.467 -0.006,0 -0.01,0 -0.016,0 -0.355,0 -0.645,-0.159 -0.816,-0.45 -0.189,-0.318 -0.194,-0.748 -0.013,-1.071 0.167,-0.297 0.459,-0.465 0.822,-0.47"
         style="fill:#e94724;fill-opacity:1;fill-rule:nonzero;stroke:none;stroke-width:0.1"
         id="path212" />
      <path
         d="m 143.909,153.629 c -0.167,0.297 -0.46,0.465 -0.822,0.47 -0.006,0 -0.01,0 -0.016,0 -0.354,0 -0.645,-0.16 -0.817,-0.45 -0.189,-0.319 -0.194,-0.749 -0.013,-1.072 0.167,-0.297 0.459,-0.465 0.822,-0.469 0.005,0 0.01,0 0.015,0 0.355,0 0.645,0.159 0.817,0.45 0.189,0.318 0.195,0.748 0.014,1.071"
         style="fill:#e94724;fill-opacity:1;fill-rule:nonzero;stroke:none;stroke-width:0.1"
         id="path214" />
      <path
         d="m 141.119,149.24 c 0.005,0 0.01,0 0.015,0 0.355,0 0.645,0.159 0.818,0.449 0.188,0.319 0.194,0.749 0.013,1.072 -0.167,0.297 -0.46,0.465 -0.822,0.469 -0.005,0 -0.009,0 -0.013,0 -0.357,0 -0.649,-0.161 -0.821,-0.451 -0.188,-0.319 -0.193,-0.749 -0.012,-1.072 0.168,-0.297 0.461,-0.463 0.822,-0.467"
         style="fill:#e94724;fill-opacity:1;fill-rule:nonzero;stroke:none;stroke-width:0.1"
         id="path216" />
      <path
         d="m 142.787,137.282 -0.086,0.05 -23.129,-13.582 -0.059,-0.059 c -0.009,-0.015 -0.214,-0.366 -0.065,-0.755 0.119,-0.308 0.42,-0.539 0.893,-0.683 0.022,-0.007 0.048,-0.011 0.081,-0.011 1.609,0 15.929,8.398 22.213,12.13 2.513,-1.489 20.684,-12.204 22.475,-12.204 0.03,0 0.056,0.004 0.077,0.011 0.474,0.144 0.775,0.375 0.894,0.683 0.149,0.389 -0.056,0.74 -0.064,0.755 l -23.23,13.665"
         style="fill:#e94724;fill-opacity:1;fill-rule:nonzero;stroke:none;stroke-width:0.1"
         id="path218" />
      <path
         d="m 162.606,120.55 -20.019,11.218 -0.083,0.046 -19.615,-11.213 c -0.068,-0.066 -1.641,-1.585 -0.845,-2.878 0.13,-0.211 0.257,-0.449 0.387,-0.689 0.447,-0.832 0.908,-1.69 1.632,-1.899 0.341,-0.101 0.704,-0.04 1.085,0.174 0.105,0.059 0.3,0.171 0.573,0.328 -0.3,-0.529 -0.442,-1.262 0.125,-2.118 1.079,-1.63 2.008,-3.045 4.473,-2.052 0.349,0.14 0.763,0.326 1.115,0.487 -0.509,-0.648 -1.09,-1.692 -0.619,-2.696 0.444,-0.949 0.947,-2.025 1.941,-2.355 0.531,-0.177 1.134,-0.118 1.835,0.179 -0.265,-0.565 -0.535,-1.521 0.134,-2.316 0.605,-0.723 6.441,-7.114 8.29,-7.2379 1.855,0.1258 7.547,6.8729 7.789,7.1619 0.669,0.796 0.4,1.752 0.134,2.318 0.699,-0.295 1.301,-0.354 1.834,-0.179 0.993,0.327 1.498,1.403 1.949,2.368 0.466,0.996 -0.114,2.035 -0.624,2.683 0.351,-0.162 0.765,-0.347 1.113,-0.487 2.461,-0.995 3.395,0.419 4.473,2.052 0.568,0.856 0.426,1.589 0.126,2.117 0.271,-0.157 0.467,-0.268 0.571,-0.327 0.381,-0.214 0.749,-0.271 1.086,-0.175 0.724,0.21 1.186,1.068 1.632,1.9 0.13,0.24 0.258,0.478 0.388,0.689 0.795,1.293 -0.779,2.812 -0.88,2.901"
         style="fill:#e94724;fill-opacity:1;fill-rule:nonzero;stroke:none;stroke-width:0.1"
         id="path220" />
      <path
         d="m 128.307,141.405 c 0.296,0 0.549,0.11 0.726,0.317 0.154,0.181 0.241,0.421 0.241,0.679 0,0.493 -0.333,0.995 -0.967,0.995 -0.297,0 -0.549,-0.109 -0.727,-0.316 -0.155,-0.182 -0.24,-0.422 -0.24,-0.679 0,-0.494 0.331,-0.996 0.967,-0.996"
         style="fill:#e94724;fill-opacity:1;fill-rule:nonzero;stroke:none;stroke-width:0.1"
         id="path222" />
      <path
         d="m 125.186,146.103 c -0.155,-0.181 -0.24,-0.421 -0.24,-0.679 0,-0.493 0.332,-0.995 0.967,-0.995 0.297,0 0.549,0.109 0.727,0.316 0.154,0.181 0.24,0.421 0.24,0.679 0,0.493 -0.333,0.995 -0.967,0.995 -0.297,0 -0.549,-0.109 -0.727,-0.316"
         style="fill:#e94724;fill-opacity:1;fill-rule:nonzero;stroke:none;stroke-width:0.1"
         id="path224" />
      <path
         d="m 124.495,149.473 c -0.181,-0.323 -0.175,-0.753 0.013,-1.072 0.173,-0.29 0.463,-0.449 0.818,-0.449 0.005,0 0.01,0 0.015,0 0.362,0.004 0.655,0.172 0.822,0.469 0.181,0.323 0.176,0.753 -0.013,1.072 -0.176,0.295 -0.476,0.458 -0.833,0.45 -0.362,-0.005 -0.655,-0.173 -0.822,-0.47"
         style="fill:#e94724;fill-opacity:1;fill-rule:nonzero;stroke:none;stroke-width:0.1"
         id="path226" />
      <path
         d="m 123.419,153.169 c -0.154,-0.181 -0.24,-0.421 -0.24,-0.679 0,-0.493 0.333,-0.995 0.967,-0.995 0.635,0 0.967,0.499 0.967,0.995 0,0.493 -0.332,0.995 -0.967,0.995 -0.297,0 -0.549,-0.109 -0.727,-0.316"
         style="fill:#e94724;fill-opacity:1;fill-rule:nonzero;stroke:none;stroke-width:0.1"
         id="path228" />
      <path
         d="m 122.777,156.862 c -0.155,-0.181 -0.24,-0.421 -0.24,-0.679 0,-0.493 0.332,-0.995 0.967,-0.995 0.297,0 0.549,0.109 0.727,0.316 0.154,0.182 0.24,0.422 0.24,0.679 0,0.494 -0.333,0.996 -0.967,0.996 -0.297,0 -0.549,-0.109 -0.727,-0.317"
         style="fill:#e94724;fill-opacity:1;fill-rule:nonzero;stroke:none;stroke-width:0.1"
         id="path230" />
      <path
         d="m 121.734,160.036 c 0,-0.493 0.333,-0.995 0.967,-0.995 0.635,0 0.967,0.5 0.967,0.995 0,0.493 -0.332,0.996 -0.967,0.996 -0.297,0 -0.549,-0.11 -0.727,-0.317 -0.154,-0.181 -0.24,-0.421 -0.24,-0.679"
         style="fill:#e94724;fill-opacity:1;fill-rule:nonzero;stroke:none;stroke-width:0.1"
         id="path232" />
      <path
         d="m 121.737,147.031 c 0,-0.494 0.333,-0.996 0.967,-0.996 0.298,0 0.549,0.109 0.727,0.317 0.155,0.181 0.24,0.421 0.24,0.679 0,0.493 -0.332,0.995 -0.967,0.995 -0.297,0 -0.549,-0.109 -0.727,-0.316 -0.154,-0.182 -0.24,-0.422 -0.24,-0.679"
         style="fill:#e94724;fill-opacity:1;fill-rule:nonzero;stroke:none;stroke-width:0.1"
         id="path234" />
      <path
         d="m 121.654,151.176 c -0.297,0 -0.549,-0.109 -0.727,-0.317 -0.155,-0.181 -0.24,-0.421 -0.24,-0.679 0,-0.493 0.332,-0.995 0.967,-0.995 0.297,0 0.549,0.109 0.727,0.317 0.154,0.181 0.24,0.421 0.24,0.678 0,0.494 -0.333,0.996 -0.967,0.996"
         style="fill:#e94724;fill-opacity:1;fill-rule:nonzero;stroke:none;stroke-width:0.1"
         id="path236" />
      <path
         d="m 117.881,152.304 c -0.297,0 -0.549,-0.109 -0.727,-0.316 -0.154,-0.181 -0.24,-0.421 -0.24,-0.679 0,-0.493 0.333,-0.995 0.967,-0.995 0.298,0 0.549,0.109 0.727,0.316 0.155,0.181 0.24,0.421 0.24,0.679 0,0.493 -0.332,0.995 -0.967,0.995"
         style="fill:#e94724;fill-opacity:1;fill-rule:nonzero;stroke:none;stroke-width:0.1"
         id="path238" />
      <path
         d="m 120.686,154.4 c -0.297,0 -0.549,-0.109 -0.727,-0.317 -0.154,-0.181 -0.24,-0.421 -0.24,-0.678 0,-0.494 0.333,-0.996 0.967,-0.996 0.635,0 0.967,0.5 0.967,0.996 0,0.493 -0.332,0.995 -0.967,0.995"
         style="fill:#e94724;fill-opacity:1;fill-rule:nonzero;stroke:none;stroke-width:0.1"
         id="path240" />
      <path
         d="m 120.425,158.43 c -0.297,0 -0.549,-0.11 -0.727,-0.317 -0.155,-0.181 -0.24,-0.421 -0.24,-0.679 0,-0.493 0.332,-0.995 0.967,-0.995 0.635,0 0.967,0.5 0.967,0.995 0,0.493 -0.332,0.996 -0.967,0.996"
         style="fill:#e94724;fill-opacity:1;fill-rule:nonzero;stroke:none;stroke-width:0.1"
         id="path242" />
      <path
         d="m 117.723,156.537 c -0.297,0 -0.549,-0.109 -0.727,-0.319 -0.155,-0.179 -0.24,-0.421 -0.24,-0.676 0,-0.496 0.332,-0.998 0.967,-0.998 0.635,0 0.967,0.502 0.967,0.995 0,0.496 -0.332,0.998 -0.967,0.998"
         style="fill:#e94724;fill-opacity:1;fill-rule:nonzero;stroke:none;stroke-width:0.1"
         id="path244" />
      <path
         d="m 113.624,154.452 c -0.154,-0.181 -0.241,-0.421 -0.241,-0.678 0,-0.494 0.333,-0.996 0.967,-0.996 0.636,0 0.967,0.5 0.967,0.996 0,0.493 -0.331,0.995 -0.967,0.995 -0.297,0 -0.549,-0.109 -0.726,-0.317"
         style="fill:#e94724;fill-opacity:1;fill-rule:nonzero;stroke:none;stroke-width:0.1"
         id="path246" />
      <path
         d="m 115.594,157.565 c 0,0.493 -0.333,0.995 -0.967,0.995 -0.298,0 -0.549,-0.109 -0.727,-0.316 -0.155,-0.181 -0.24,-0.421 -0.24,-0.679 0,-0.493 0.331,-0.995 0.967,-0.995 0.296,0 0.549,0.109 0.726,0.316 0.154,0.181 0.241,0.422 0.241,0.679"
         style="fill:#e94724;fill-opacity:1;fill-rule:nonzero;stroke:none;stroke-width:0.1"
         id="path248" />
      <path
         d="m 110.483,156.29 c 0,-0.493 0.332,-0.995 0.967,-0.995 0.297,0 0.549,0.109 0.727,0.316 0.154,0.182 0.24,0.422 0.24,0.679 0,0.494 -0.332,0.996 -0.967,0.996 -0.296,0 -0.549,-0.109 -0.726,-0.317 -0.155,-0.181 -0.241,-0.421 -0.241,-0.679"
         style="fill:#e94724;fill-opacity:1;fill-rule:nonzero;stroke:none;stroke-width:0.1"
         id="path250" />
      <path
         d="m 107.927,157.436 c 0.636,0 0.967,0.5 0.967,0.996 0,0.493 -0.331,0.995 -0.967,0.995 -0.297,0 -0.549,-0.109 -0.727,-0.316 -0.153,-0.182 -0.24,-0.422 -0.24,-0.679 0,-0.494 0.333,-0.996 0.967,-0.996"
         style="fill:#e94724;fill-opacity:1;fill-rule:nonzero;stroke:none;stroke-width:0.1"
         id="path252" />
      <path
         d="m 109.979,160.206 c 0.298,0 0.549,0.11 0.727,0.317 0.155,0.181 0.24,0.421 0.24,0.679 0,0.493 -0.332,0.995 -0.967,0.995 -0.297,0 -0.549,-0.109 -0.727,-0.316 -0.154,-0.182 -0.24,-0.422 -0.24,-0.679 0,-0.494 0.333,-0.996 0.967,-0.996"
         style="fill:#e94724;fill-opacity:1;fill-rule:nonzero;stroke:none;stroke-width:0.1"
         id="path254" />
      <path
         d="m 117.757,160.44 c -0.297,0 -0.549,-0.109 -0.727,-0.317 -0.155,-0.181 -0.24,-0.421 -0.24,-0.678 0,-0.494 0.332,-0.996 0.967,-0.996 0.635,0 0.967,0.5 0.967,0.996 0,0.493 -0.332,0.995 -0.967,0.995"
         style="fill:#e94724;fill-opacity:1;fill-rule:nonzero;stroke:none;stroke-width:0.1"
         id="path256" />
      <path
         d="m 114.317,161.772 c -0.298,0 -0.549,-0.11 -0.727,-0.317 -0.155,-0.181 -0.24,-0.421 -0.24,-0.679 0,-0.493 0.331,-0.995 0.967,-0.995 0.296,0 0.549,0.109 0.726,0.316 0.154,0.181 0.241,0.422 0.241,0.679 0,0.493 -0.333,0.996 -0.967,0.996"
         style="fill:#e94724;fill-opacity:1;fill-rule:nonzero;stroke:none;stroke-width:0.1"
         id="path258" />
      <path
         d="m 112.004,162.893 c 0.635,0 0.967,0.5 0.967,0.996 0,0.493 -0.332,0.995 -0.967,0.995 -0.297,0 -0.549,-0.109 -0.727,-0.316 -0.154,-0.181 -0.24,-0.422 -0.24,-0.679 0,-0.493 0.333,-0.996 0.967,-0.996"
         style="fill:#e94724;fill-opacity:1;fill-rule:nonzero;stroke:none;stroke-width:0.1"
         id="path260" />
      <path
         d="m 113.797,164.201 c -0.154,-0.181 -0.24,-0.421 -0.24,-0.679 0,-0.493 0.333,-0.995 0.967,-0.995 0.298,0 0.549,0.109 0.727,0.316 0.155,0.181 0.24,0.422 0.24,0.679 0,0.493 -0.332,0.996 -0.967,0.996 -0.297,0 -0.549,-0.11 -0.727,-0.317"
         style="fill:#e94724;fill-opacity:1;fill-rule:nonzero;stroke:none;stroke-width:0.1"
         id="path262" />
      <path
         d="m 120.672,161.754 c 0,0.496 -0.332,0.998 -0.967,0.998 -0.297,0 -0.549,-0.11 -0.727,-0.317 -0.155,-0.181 -0.24,-0.421 -0.24,-0.679 0,-0.495 0.333,-0.997 0.967,-0.997 0.635,0 0.967,0.502 0.967,0.995"
         style="fill:#e94724;fill-opacity:1;fill-rule:nonzero;stroke:none;stroke-width:0.1"
         id="path264" />
      <path
         d="m 119.874,164.43 c 0,0.494 -0.332,0.996 -0.967,0.996 -0.297,0 -0.549,-0.11 -0.727,-0.317 -0.154,-0.181 -0.24,-0.421 -0.24,-0.679 0,-0.493 0.333,-0.995 0.967,-0.995 0.635,0 0.967,0.5 0.967,0.995"
         style="fill:#e94724;fill-opacity:1;fill-rule:nonzero;stroke:none;stroke-width:0.1"
         id="path266" />
      <path
         d="m 120.92,164.45 c -0.155,-0.179 -0.24,-0.421 -0.24,-0.677 0,-0.495 0.331,-0.997 0.967,-0.997 0.296,0 0.549,0.109 0.727,0.316 0.155,0.181 0.24,0.424 0.24,0.679 0,0.495 -0.333,0.998 -0.967,0.998 -0.297,0 -0.549,-0.11 -0.727,-0.319"
         style="fill:#e94724;fill-opacity:1;fill-rule:nonzero;stroke:none;stroke-width:0.1"
         id="path268" />
      <path
         d="m 120.334,167.397 c -0.155,-0.181 -0.241,-0.422 -0.241,-0.679 0,-0.493 0.332,-0.996 0.967,-0.996 0.297,0 0.549,0.11 0.727,0.317 0.154,0.181 0.24,0.421 0.24,0.679 0,0.493 -0.332,0.995 -0.967,0.995 -0.296,0 -0.548,-0.109 -0.726,-0.316"
         style="fill:#e94724;fill-opacity:1;fill-rule:nonzero;stroke:none;stroke-width:0.1"
         id="path270" />
      <path
         d="m 116.278,164.804 c 0.297,0 0.549,0.109 0.727,0.316 0.154,0.181 0.24,0.421 0.24,0.679 0,0.493 -0.333,0.995 -0.967,0.995 -0.297,0 -0.549,-0.109 -0.727,-0.316 -0.155,-0.181 -0.24,-0.422 -0.24,-0.679 0,-0.493 0.332,-0.995 0.967,-0.995"
         style="fill:#e94724;fill-opacity:1;fill-rule:nonzero;stroke:none;stroke-width:0.1"
         id="path272" />
      <path
         d="m 113.977,165.279 c 0.297,0 0.549,0.11 0.727,0.317 0.154,0.181 0.24,0.421 0.24,0.679 0,0.493 -0.333,0.995 -0.967,0.995 -0.297,0 -0.549,-0.109 -0.727,-0.316 -0.155,-0.182 -0.24,-0.422 -0.24,-0.679 0,-0.494 0.332,-0.996 0.967,-0.996"
         style="fill:#e94724;fill-opacity:1;fill-rule:nonzero;stroke:none;stroke-width:0.1"
         id="path274" />
      <path
         d="m 118.438,168.706 c -0.297,0 -0.549,-0.109 -0.727,-0.316 -0.155,-0.181 -0.24,-0.421 -0.24,-0.679 0,-0.493 0.332,-0.995 0.967,-0.995 0.297,0 0.549,0.109 0.727,0.316 0.154,0.181 0.24,0.422 0.24,0.679 0,0.493 -0.333,0.995 -0.967,0.995"
         style="fill:#e94724;fill-opacity:1;fill-rule:nonzero;stroke:none;stroke-width:0.1"
         id="path276" />
      <path
         d="m 116.361,167.903 c 0.635,0 0.967,0.5 0.967,0.996 0,0.493 -0.332,0.995 -0.967,0.995 -0.297,0 -0.549,-0.109 -0.727,-0.317 -0.154,-0.181 -0.24,-0.421 -0.24,-0.678 0,-0.494 0.333,-0.996 0.967,-0.996"
         style="fill:#e94724;fill-opacity:1;fill-rule:nonzero;stroke:none;stroke-width:0.1"
         id="path278" />
      <path
         d="m 119.729,172.035 c 0.297,0 0.549,0.109 0.727,0.317 0.154,0.181 0.24,0.421 0.24,0.679 0,0.493 -0.333,0.995 -0.967,0.995 -0.297,0 -0.549,-0.109 -0.727,-0.316 -0.155,-0.182 -0.24,-0.422 -0.24,-0.679 0,-0.494 0.332,-0.996 0.967,-0.996"
         style="fill:#e94724;fill-opacity:1;fill-rule:nonzero;stroke:none;stroke-width:0.1"
         id="path280" />
      <path
         d="m 119.574,170.088 c -0.154,-0.181 -0.24,-0.421 -0.24,-0.679 0,-0.493 0.333,-0.995 0.967,-0.995 0.635,0 0.967,0.5 0.967,0.995 0,0.494 -0.332,0.996 -0.967,0.996 -0.297,0 -0.549,-0.109 -0.727,-0.317"
         style="fill:#e94724;fill-opacity:1;fill-rule:nonzero;stroke:none;stroke-width:0.1"
         id="path282" />
      <path
         d="m 118.154,170.079 c 0.635,0 0.967,0.503 0.967,0.996 0,0.495 -0.332,0.997 -0.967,0.997 -0.297,0 -0.549,-0.109 -0.727,-0.316 -0.155,-0.181 -0.24,-0.421 -0.24,-0.679 0,-0.495 0.333,-0.998 0.967,-0.998"
         style="fill:#e94724;fill-opacity:1;fill-rule:nonzero;stroke:none;stroke-width:0.1"
         id="path284" />
      <path
         d="m 116.237,163.16 c -0.153,-0.181 -0.24,-0.421 -0.24,-0.679 0,-0.493 0.333,-0.995 0.967,-0.995 0.298,0 0.549,0.109 0.727,0.316 0.155,0.181 0.24,0.421 0.24,0.679 0,0.493 -0.331,0.995 -0.967,0.995 -0.297,0 -0.549,-0.109 -0.727,-0.316"
         style="fill:#e94724;fill-opacity:1;fill-rule:nonzero;stroke:none;stroke-width:0.1"
         id="path286" />
      <path
         d="m 101.621,158.851 c 0.298,0 0.549,0.109 0.727,0.316 0.155,0.182 0.24,0.422 0.24,0.679 0,0.494 -0.332,0.996 -0.967,0.996 -0.297,0 -0.549,-0.11 -0.727,-0.317 -0.154,-0.181 -0.24,-0.421 -0.24,-0.679 0,-0.493 0.333,-0.995 0.967,-0.995"
         style="fill:#e94724;fill-opacity:1;fill-rule:nonzero;stroke:none;stroke-width:0.1"
         id="path288" />
      <path
         d="m 99.9109,156.751 c 0.2981,0 0.5491,0.109 0.7271,0.316 0.155,0.182 0.24,0.422 0.24,0.679 0,0.494 -0.332,0.996 -0.9671,0.996 -0.2968,0 -0.5492,-0.109 -0.7269,-0.317 -0.1539,-0.181 -0.2402,-0.421 -0.2402,-0.679 0,-0.493 0.3328,-0.995 0.9671,-0.995"
         style="fill:#e94724;fill-opacity:1;fill-rule:nonzero;stroke:none;stroke-width:0.1"
         id="path290" />
      <path
         d="m 101.743,157.591 c 0,-0.493 0.332,-0.995 0.967,-0.995 0.297,0 0.549,0.109 0.727,0.316 0.154,0.182 0.24,0.422 0.24,0.679 0,0.494 -0.333,0.996 -0.967,0.996 -0.298,0 -0.549,-0.109 -0.727,-0.317 -0.155,-0.181 -0.24,-0.421 -0.24,-0.679"
         style="fill:#e94724;fill-opacity:1;fill-rule:nonzero;stroke:none;stroke-width:0.1"
         id="path292" />
      <path
         d="m 98.434,154.42 c 0.6351,0 0.9672,0.499 0.9672,0.995 0,0.493 -0.3321,0.995 -0.9672,0.995 -0.2969,0 -0.5488,-0.109 -0.727,-0.316 -0.1539,-0.181 -0.2398,-0.421 -0.2398,-0.679 0,-0.493 0.3328,-0.995 0.9668,-0.995"
         style="fill:#e94724;fill-opacity:1;fill-rule:nonzero;stroke:none;stroke-width:0.1"
         id="path294" />
      <path
         d="m 101.078,156.332 c -0.297,0 -0.549,-0.109 -0.727,-0.317 -0.155,-0.181 -0.24,-0.421 -0.24,-0.679 0,-0.493 0.331,-0.995 0.967,-0.995 0.296,0 0.548,0.109 0.726,0.317 0.154,0.181 0.24,0.421 0.24,0.678 0,0.494 -0.332,0.996 -0.966,0.996"
         style="fill:#e94724;fill-opacity:1;fill-rule:nonzero;stroke:none;stroke-width:0.1"
         id="path296" />
      <path
         d="m 102.909,154.793 c 0,-0.493 0.332,-0.995 0.967,-0.995 0.635,0 0.967,0.499 0.967,0.995 0,0.493 -0.332,0.995 -0.967,0.995 -0.297,0 -0.549,-0.109 -0.727,-0.316 -0.155,-0.181 -0.24,-0.422 -0.24,-0.679"
         style="fill:#e94724;fill-opacity:1;fill-rule:nonzero;stroke:none;stroke-width:0.1"
         id="path298" />
      <path
         d="m 99.2109,154.155 c -0.2964,0 -0.5488,-0.109 -0.7265,-0.316 -0.1539,-0.181 -0.2403,-0.421 -0.2403,-0.679 0,-0.493 0.3329,-0.995 0.9668,-0.995 0.2981,0 0.5493,0.109 0.727,0.316 0.1551,0.181 0.2401,0.422 0.2401,0.679 0,0.493 -0.3315,0.995 -0.9671,0.995"
         style="fill:#e94724;fill-opacity:1;fill-rule:nonzero;stroke:none;stroke-width:0.1"
         id="path300" />
      <path
         d="m 96.5688,152.088 c 0.2968,0 0.5492,0.109 0.7269,0.317 0.1539,0.181 0.2402,0.421 0.2402,0.679 0,0.493 -0.3332,0.995 -0.9671,0.995 -0.2969,0 -0.5489,-0.109 -0.727,-0.316 -0.1551,-0.182 -0.2402,-0.422 -0.2402,-0.679 0,-0.494 0.332,-0.996 0.9672,-0.996"
         style="fill:#e94724;fill-opacity:1;fill-rule:nonzero;stroke:none;stroke-width:0.1"
         id="path302" />
      <path
         d="m 95.0137,150.067 c 0.6351,0 0.9668,0.5 0.9668,0.995 0,0.494 -0.3317,0.996 -0.9668,0.996 -0.2969,0 -0.5492,-0.109 -0.727,-0.317 -0.1539,-0.181 -0.2402,-0.421 -0.2402,-0.679 0,-0.493 0.3328,-0.995 0.9672,-0.995"
         style="fill:#e94724;fill-opacity:1;fill-rule:nonzero;stroke:none;stroke-width:0.1"
         id="path304" />
      <path
         d="m 93.4594,147.111 c 0.2969,0 0.5488,0.11 0.7269,0.317 0.1539,0.181 0.2399,0.421 0.2399,0.679 0,0.493 -0.3328,0.995 -0.9668,0.995 -0.2969,0 -0.5492,-0.109 -0.727,-0.316 -0.1551,-0.182 -0.2402,-0.422 -0.2402,-0.679 0,-0.494 0.332,-0.996 0.9672,-0.996"
         style="fill:#e94724;fill-opacity:1;fill-rule:nonzero;stroke:none;stroke-width:0.1"
         id="path306" />
      <path
         d="m 91.9816,144.78 c 0.2977,0 0.5489,0.109 0.727,0.317 0.1547,0.181 0.2398,0.421 0.2398,0.678 0,0.494 -0.3316,0.996 -0.9668,0.996 -0.2968,0 -0.5492,-0.109 -0.7269,-0.317 -0.1539,-0.181 -0.2402,-0.421 -0.2402,-0.679 0,-0.493 0.3328,-0.995 0.9671,-0.995"
         style="fill:#e94724;fill-opacity:1;fill-rule:nonzero;stroke:none;stroke-width:0.1"
         id="path308" />
      <path
         d="m 102.366,153.769 c -0.296,0 -0.549,-0.109 -0.726,-0.316 -0.155,-0.182 -0.241,-0.422 -0.241,-0.679 0,-0.494 0.332,-0.996 0.967,-0.996 0.636,0 0.967,0.5 0.967,0.996 0,0.493 -0.331,0.995 -0.967,0.995"
         style="fill:#e94724;fill-opacity:1;fill-rule:nonzero;stroke:none;stroke-width:0.1"
         id="path310" />
      <path
         d="m 104.535,151.669 c 0,-0.493 0.333,-0.995 0.967,-0.995 0.635,0 0.967,0.5 0.967,0.995 0,0.494 -0.332,0.996 -0.967,0.996 -0.297,0 -0.549,-0.11 -0.727,-0.317 -0.154,-0.181 -0.24,-0.421 -0.24,-0.679"
         style="fill:#e94724;fill-opacity:1;fill-rule:nonzero;stroke:none;stroke-width:0.1"
         id="path312" />
      <path
         d="m 97.1441,151.381 c -0.155,-0.181 -0.2402,-0.421 -0.2402,-0.679 0,-0.493 0.3316,-0.995 0.9668,-0.995 0.2969,0 0.5492,0.109 0.727,0.316 0.1539,0.182 0.2402,0.422 0.2402,0.679 0,0.494 -0.3328,0.996 -0.9672,0.996 -0.2977,0 -0.5488,-0.11 -0.7266,-0.317"
         style="fill:#e94724;fill-opacity:1;fill-rule:nonzero;stroke:none;stroke-width:0.1"
         id="path314" />
      <path
         d="m 101.843,150.51 c 0,0.493 -0.332,0.995 -0.967,0.995 -0.297,0 -0.549,-0.109 -0.727,-0.316 -0.1541,-0.181 -0.2404,-0.421 -0.2404,-0.679 0,-0.493 0.3324,-0.995 0.9674,-0.995 0.635,0 0.967,0.5 0.967,0.995"
         style="fill:#e94724;fill-opacity:1;fill-rule:nonzero;stroke:none;stroke-width:0.1"
         id="path316" />
      <path
         d="m 99.4973,149.021 c -0.2969,0 -0.5493,-0.109 -0.727,-0.316 -0.1539,-0.181 -0.2402,-0.421 -0.2402,-0.679 0,-0.493 0.3328,-0.995 0.9672,-0.995 0.2976,0 0.5487,0.109 0.7267,0.316 0.155,0.181 0.24,0.421 0.24,0.679 0,0.493 -0.332,0.995 -0.9667,0.995"
         style="fill:#e94724;fill-opacity:1;fill-rule:nonzero;stroke:none;stroke-width:0.1"
         id="path318" />
      <path
         d="m 96.5449,149.115 c -0.2969,0 -0.5492,-0.109 -0.7269,-0.316 -0.1539,-0.181 -0.2403,-0.422 -0.2403,-0.679 0,-0.493 0.3328,-0.995 0.9672,-0.995 0.6352,0 0.9668,0.499 0.9668,0.995 0,0.493 -0.3316,0.995 -0.9668,0.995"
         style="fill:#e94724;fill-opacity:1;fill-rule:nonzero;stroke:none;stroke-width:0.1"
         id="path320" />
      <path
         d="m 96.0949,145.638 c 0,0.493 -0.3316,0.995 -0.9668,0.995 -0.2968,0 -0.5488,-0.109 -0.7269,-0.316 -0.1539,-0.181 -0.2403,-0.421 -0.2403,-0.679 0,-0.493 0.3332,-0.995 0.9672,-0.995 0.6352,0 0.9668,0.499 0.9668,0.995"
         style="fill:#e94724;fill-opacity:1;fill-rule:nonzero;stroke:none;stroke-width:0.1"
         id="path322" />
      <path
         d="m 103.647,150.713 c -0.297,0 -0.549,-0.109 -0.727,-0.316 -0.155,-0.182 -0.24,-0.422 -0.24,-0.679 0,-0.494 0.332,-0.996 0.967,-0.996 0.297,0 0.549,0.109 0.727,0.317 0.153,0.181 0.24,0.421 0.24,0.679 0,0.493 -0.333,0.995 -0.967,0.995"
         style="fill:#e94724;fill-opacity:1;fill-rule:nonzero;stroke:none;stroke-width:0.1"
         id="path324" />
      <path
         d="m 107.266,147.79 c 0.297,0 0.549,0.109 0.727,0.317 0.154,0.181 0.24,0.421 0.24,0.679 0,0.493 -0.333,0.995 -0.967,0.995 -0.298,0 -0.549,-0.109 -0.727,-0.316 -0.155,-0.182 -0.24,-0.422 -0.24,-0.679 0,-0.494 0.332,-0.996 0.967,-0.996"
         style="fill:#e94724;fill-opacity:1;fill-rule:nonzero;stroke:none;stroke-width:0.1"
         id="path326" />
      <path
         d="m 101.501,147.659 c -0.154,-0.181 -0.24,-0.421 -0.24,-0.679 0,-0.493 0.333,-0.995 0.967,-0.995 0.635,0 0.967,0.5 0.967,0.995 0,0.494 -0.332,0.996 -0.967,0.996 -0.297,0 -0.549,-0.109 -0.727,-0.317"
         style="fill:#e94724;fill-opacity:1;fill-rule:nonzero;stroke:none;stroke-width:0.1"
         id="path328" />
      <path
         d="m 105.377,144.448 c 0.635,0 0.967,0.5 0.967,0.996 0,0.493 -0.332,0.995 -0.967,0.995 -0.297,0 -0.549,-0.109 -0.727,-0.316 -0.154,-0.182 -0.24,-0.422 -0.24,-0.679 0,-0.494 0.332,-0.996 0.967,-0.996"
         style="fill:#e94724;fill-opacity:1;fill-rule:nonzero;stroke:none;stroke-width:0.1"
         id="path330" />
      <path
         d="m 109.494,145.105 c 0.153,0.182 0.24,0.422 0.24,0.679 0,0.494 -0.333,0.996 -0.967,0.996 -0.297,0 -0.549,-0.11 -0.727,-0.317 -0.155,-0.181 -0.24,-0.421 -0.24,-0.679 0,-0.493 0.331,-0.995 0.967,-0.995 0.296,0 0.549,0.109 0.727,0.316"
         style="fill:#e94724;fill-opacity:1;fill-rule:nonzero;stroke:none;stroke-width:0.1"
         id="path332" />
      <path
         d="m 116.219,132.467 c -0.297,0 -0.549,-0.11 -0.727,-0.317 -0.155,-0.181 -0.24,-0.421 -0.24,-0.679 0,-0.493 0.332,-0.995 0.967,-0.995 0.297,0 0.549,0.109 0.727,0.316 0.154,0.181 0.24,0.422 0.24,0.679 0,0.494 -0.333,0.996 -0.967,0.996"
         style="fill:#e94724;fill-opacity:1;fill-rule:nonzero;stroke:none;stroke-width:0.1"
         id="path334" />
      <path
         d="m 114.509,135.571 c -0.297,0 -0.549,-0.11 -0.727,-0.317 -0.154,-0.181 -0.24,-0.421 -0.24,-0.679 0,-0.493 0.333,-0.995 0.967,-0.995 0.298,0 0.549,0.109 0.727,0.316 0.155,0.182 0.24,0.422 0.24,0.679 0,0.494 -0.332,0.996 -0.967,0.996"
         style="fill:#e94724;fill-opacity:1;fill-rule:nonzero;stroke:none;stroke-width:0.1"
         id="path336" />
      <path
         d="m 110.438,135.691 c -0.297,0 -0.549,-0.11 -0.727,-0.317 -0.155,-0.181 -0.24,-0.421 -0.24,-0.679 0,-0.493 0.331,-0.995 0.967,-0.995 0.296,0 0.549,0.109 0.726,0.316 0.154,0.182 0.241,0.422 0.241,0.679 0,0.494 -0.333,0.996 -0.967,0.996"
         style="fill:#e94724;fill-opacity:1;fill-rule:nonzero;stroke:none;stroke-width:0.1"
         id="path338" />
      <path
         d="m 112.448,138.902 c -0.297,0 -0.549,-0.11 -0.727,-0.317 -0.154,-0.181 -0.24,-0.421 -0.24,-0.679 0,-0.493 0.333,-0.995 0.967,-0.995 0.635,0 0.967,0.5 0.967,0.995 0,0.494 -0.332,0.996 -0.967,0.996"
         style="fill:#e94724;fill-opacity:1;fill-rule:nonzero;stroke:none;stroke-width:0.1"
         id="path340" />
      <path
         d="m 106.446,138.181 c -0.298,0 -0.549,-0.109 -0.727,-0.316 -0.155,-0.181 -0.24,-0.422 -0.24,-0.679 0,-0.493 0.332,-0.995 0.967,-0.995 0.297,0 0.549,0.109 0.727,0.316 0.154,0.181 0.24,0.421 0.24,0.679 0,0.493 -0.333,0.995 -0.967,0.995"
         style="fill:#e94724;fill-opacity:1;fill-rule:nonzero;stroke:none;stroke-width:0.1"
         id="path342" />
      <path
         d="m 110.134,141.48 c 0,-0.494 0.333,-0.996 0.967,-0.996 0.635,0 0.967,0.5 0.967,0.996 0,0.493 -0.332,0.995 -0.967,0.995 -0.297,0 -0.549,-0.109 -0.727,-0.317 -0.154,-0.181 -0.24,-0.421 -0.24,-0.678"
         style="fill:#e94724;fill-opacity:1;fill-rule:nonzero;stroke:none;stroke-width:0.1"
         id="path344" />
      <path
         d="m 107.103,142.815 c 0,-0.493 0.332,-0.995 0.967,-0.995 0.297,0 0.549,0.109 0.727,0.317 0.154,0.181 0.24,0.421 0.24,0.678 0,0.494 -0.333,0.996 -0.967,0.996 -0.298,0 -0.549,-0.109 -0.727,-0.317 -0.155,-0.181 -0.24,-0.421 -0.24,-0.679"
         style="fill:#e94724;fill-opacity:1;fill-rule:nonzero;stroke:none;stroke-width:0.1"
         id="path346" />
      <path
         d="m 109.913,138.906 c 0,0.493 -0.333,0.995 -0.967,0.995 -0.298,0 -0.549,-0.109 -0.727,-0.316 -0.155,-0.181 -0.24,-0.421 -0.24,-0.679 0,-0.493 0.331,-0.995 0.967,-0.995 0.296,0 0.549,0.109 0.726,0.316 0.154,0.181 0.241,0.421 0.241,0.679"
         style="fill:#e94724;fill-opacity:1;fill-rule:nonzero;stroke:none;stroke-width:0.1"
         id="path348" />
      <path
         d="m 106.212,141.46 c 0,0.493 -0.333,0.995 -0.967,0.995 -0.298,0 -0.549,-0.109 -0.727,-0.316 -0.155,-0.181 -0.24,-0.421 -0.24,-0.679 0,-0.493 0.331,-0.995 0.967,-0.995 0.296,0 0.549,0.109 0.726,0.316 0.154,0.181 0.241,0.421 0.241,0.679"
         style="fill:#e94724;fill-opacity:1;fill-rule:nonzero;stroke:none;stroke-width:0.1"
         id="path350" />
      <path
         d="m 102.766,142.789 c 0.155,0.181 0.24,0.422 0.24,0.679 0,0.494 -0.332,0.996 -0.967,0.996 -0.297,0 -0.549,-0.11 -0.727,-0.317 -0.154,-0.181 -0.24,-0.421 -0.24,-0.679 0,-0.493 0.333,-0.995 0.967,-0.995 0.298,0 0.549,0.109 0.727,0.316"
         style="fill:#e94724;fill-opacity:1;fill-rule:nonzero;stroke:none;stroke-width:0.1"
         id="path352" />
      <path
         d="m 99.402,145.14 c 0,0.494 -0.3317,0.996 -0.9668,0.996 -0.2969,0 -0.5493,-0.109 -0.727,-0.317 -0.1539,-0.181 -0.2402,-0.421 -0.2402,-0.679 0,-0.493 0.3332,-0.995 0.9672,-0.995 0.6351,0 0.9668,0.5 0.9668,0.995"
         style="fill:#e94724;fill-opacity:1;fill-rule:nonzero;stroke:none;stroke-width:0.1"
         id="path354" />
      <path
         d="m 98.6938,142.418 c -0.2969,0 -0.5489,-0.109 -0.727,-0.316 -0.1551,-0.181 -0.2398,-0.422 -0.2398,-0.679 0,-0.493 0.3316,-0.996 0.9668,-0.996 0.6351,0 0.9671,0.5 0.9671,0.996 0,0.493 -0.332,0.995 -0.9671,0.995"
         style="fill:#e94724;fill-opacity:1;fill-rule:nonzero;stroke:none;stroke-width:0.1"
         id="path356" />
      <path
         d="m 102.92,140.552 c -0.297,0 -0.549,-0.109 -0.727,-0.317 -0.155,-0.181 -0.24,-0.421 -0.24,-0.679 0,-0.493 0.332,-0.995 0.967,-0.995 0.297,0 0.549,0.109 0.727,0.317 0.154,0.181 0.24,0.421 0.24,0.678 0,0.494 -0.333,0.996 -0.967,0.996"
         style="fill:#e94724;fill-opacity:1;fill-rule:nonzero;stroke:none;stroke-width:0.1"
         id="path358" />
      <path
         d="m 112.576,158.51 c 0.155,0.181 0.24,0.422 0.24,0.679 0,0.493 -0.332,0.996 -0.967,0.996 -0.297,0 -0.549,-0.11 -0.727,-0.317 -0.154,-0.181 -0.24,-0.421 -0.24,-0.679 0,-0.493 0.333,-0.995 0.967,-0.995 0.298,0 0.549,0.109 0.727,0.316"
         style="fill:#e94724;fill-opacity:1;fill-rule:nonzero;stroke:none;stroke-width:0.1"
         id="path360" />
      <path
         d="m 96.1574,143.927 c -0.2969,0 -0.5492,-0.11 -0.7269,-0.317 -0.1539,-0.181 -0.2403,-0.421 -0.2403,-0.679 0,-0.495 0.3328,-0.997 0.9672,-0.997 0.2981,0 0.5489,0.109 0.727,0.316 0.1547,0.181 0.2398,0.421 0.2398,0.679 0,0.496 -0.3316,0.998 -0.9668,0.998"
         style="fill:#e94724;fill-opacity:1;fill-rule:nonzero;stroke:none;stroke-width:0.1"
         id="path362" />
      <path
         d="m 142.465,181.485 c -0.004,0 -0.008,0 -0.012,0 -0.363,-0.004 -0.655,-0.172 -0.822,-0.469 -0.181,-0.323 -0.176,-0.753 0.013,-1.072 0.172,-0.29 0.463,-0.45 0.817,-0.45 0.006,0 0.01,0 0.016,0 0.362,0.005 0.653,0.17 0.82,0.467 0.181,0.321 0.177,0.753 -0.012,1.072 -0.172,0.29 -0.462,0.452 -0.82,0.452"
         style="fill:#e94724;fill-opacity:1;fill-rule:nonzero;stroke:none;stroke-width:0.1"
         id="path364" />
      <path
         d="m 139.456,179.453 c 0.004,0 0.008,0 0.013,0 0.362,0.004 0.654,0.172 0.821,0.469 0.182,0.323 0.176,0.753 -0.013,1.072 -0.171,0.29 -0.461,0.449 -0.816,0.449 -0.005,0 -0.01,0 -0.015,0 -0.362,-0.004 -0.654,-0.17 -0.822,-0.467 -0.181,-0.323 -0.177,-0.753 0.012,-1.071 0.172,-0.291 0.463,-0.452 0.82,-0.452"
         style="fill:#e94724;fill-opacity:1;fill-rule:nonzero;stroke:none;stroke-width:0.1"
         id="path366" />
      <path
         d="m 137.526,176.87 c 0.005,0 0.01,0 0.015,0 0.362,0.005 0.654,0.171 0.822,0.467 0.181,0.324 0.177,0.754 -0.012,1.072 -0.172,0.291 -0.463,0.452 -0.821,0.452 -0.003,0 -0.007,0 -0.012,0 -0.362,-0.004 -0.655,-0.172 -0.822,-0.469 -0.181,-0.323 -0.175,-0.753 0.013,-1.072 0.172,-0.29 0.462,-0.45 0.817,-0.45"
         style="fill:#e94724;fill-opacity:1;fill-rule:nonzero;stroke:none;stroke-width:0.1"
         id="path368" />
      <path
         d="m 135.836,174.672 c 0.005,0 0.009,0 0.013,0 0.363,0.005 0.655,0.173 0.822,0.47 0.181,0.323 0.176,0.753 -0.013,1.071 -0.174,0.295 -0.467,0.463 -0.831,0.45 -0.362,-0.004 -0.654,-0.17 -0.822,-0.467 -0.182,-0.323 -0.177,-0.753 0.012,-1.072 0.172,-0.29 0.462,-0.452 0.819,-0.452"
         style="fill:#e94724;fill-opacity:1;fill-rule:nonzero;stroke:none;stroke-width:0.1"
         id="path370" />
      <path
         d="m 133.521,172.559 c 0.005,0 0.009,0 0.013,0 0.363,0.005 0.655,0.173 0.822,0.47 0.182,0.323 0.176,0.753 -0.013,1.071 -0.172,0.291 -0.463,0.45 -0.817,0.45 -0.006,0 -0.01,0 -0.016,0 -0.361,-0.004 -0.653,-0.17 -0.821,-0.467 -0.182,-0.323 -0.176,-0.753 0.012,-1.072 0.172,-0.29 0.463,-0.452 0.82,-0.452"
         style="fill:#e94724;fill-opacity:1;fill-rule:nonzero;stroke:none;stroke-width:0.1"
         id="path372" />
      <path
         d="m 131.647,170.529 c 0.006,0 0.01,0 0.016,0 0.362,0.005 0.655,0.173 0.821,0.469 0.182,0.324 0.176,0.754 -0.013,1.072 -0.171,0.291 -0.461,0.45 -0.816,0.45 -0.005,0 -0.01,0 -0.015,0 -0.363,-0.004 -0.655,-0.173 -0.822,-0.469 -0.181,-0.323 -0.176,-0.754 0.013,-1.072 0.171,-0.291 0.462,-0.45 0.816,-0.45"
         style="fill:#e94724;fill-opacity:1;fill-rule:nonzero;stroke:none;stroke-width:0.1"
         id="path374" />
      <path
         d="m 129.795,168.34 c 0.006,0 0.01,0 0.016,0 0.362,0.004 0.653,0.17 0.821,0.467 0.182,0.323 0.176,0.753 -0.012,1.072 -0.172,0.29 -0.462,0.449 -0.818,0.449 -0.006,0 -0.01,0 -0.016,0 -0.362,-0.004 -0.653,-0.17 -0.821,-0.467 -0.182,-0.323 -0.176,-0.753 0.012,-1.072 0.172,-0.29 0.462,-0.449 0.818,-0.449"
         style="fill:#e94724;fill-opacity:1;fill-rule:nonzero;stroke:none;stroke-width:0.1"
         id="path376" />
      <path
         d="m 128.303,166.166 c 0.006,0 0.01,0 0.016,0 0.362,0.004 0.653,0.17 0.821,0.467 0.182,0.323 0.176,0.753 -0.012,1.072 -0.172,0.29 -0.463,0.451 -0.821,0.451 -0.004,0 -0.008,0 -0.012,0 -0.363,-0.004 -0.655,-0.172 -0.822,-0.469 -0.182,-0.323 -0.176,-0.753 0.013,-1.072 0.172,-0.29 0.463,-0.449 0.817,-0.449"
         style="fill:#e94724;fill-opacity:1;fill-rule:nonzero;stroke:none;stroke-width:0.1"
         id="path378" />
      <path
         d="m 140.31,177.27 c 0.173,-0.291 0.463,-0.45 0.818,-0.45 0.005,0 0.009,0 0.015,0 0.361,0.005 0.654,0.17 0.822,0.467 0.181,0.323 0.175,0.753 -0.012,1.072 -0.173,0.29 -0.464,0.452 -0.822,0.452 -0.003,0 -0.008,0 -0.012,0 -0.362,-0.004 -0.655,-0.173 -0.822,-0.469 -0.181,-0.323 -0.176,-0.753 0.013,-1.072"
         style="fill:#e94724;fill-opacity:1;fill-rule:nonzero;stroke:none;stroke-width:0.1"
         id="path380" />
      <path
         d="m 139.8,176.663 c -0.362,-0.004 -0.653,-0.17 -0.821,-0.467 -0.182,-0.323 -0.177,-0.753 0.012,-1.072 0.172,-0.29 0.462,-0.452 0.82,-0.452 0.004,0 0.008,0 0.012,0 0.363,0.005 0.655,0.173 0.822,0.47 0.181,0.323 0.176,0.753 -0.013,1.071 -0.175,0.295 -0.479,0.463 -0.832,0.45"
         style="fill:#e94724;fill-opacity:1;fill-rule:nonzero;stroke:none;stroke-width:0.1"
         id="path382" />
      <path
         d="m 138.215,174.609 c -0.363,-0.004 -0.655,-0.173 -0.822,-0.469 -0.181,-0.323 -0.176,-0.753 0.013,-1.072 0.172,-0.29 0.463,-0.45 0.817,-0.45 0.006,0 0.01,0 0.016,0 0.361,0.005 0.653,0.17 0.82,0.467 0.182,0.321 0.177,0.753 -0.012,1.072 -0.172,0.29 -0.462,0.452 -0.819,0.452 -0.005,0 -0.009,0 -0.013,0"
         style="fill:#e94724;fill-opacity:1;fill-rule:nonzero;stroke:none;stroke-width:0.1"
         id="path384" />
      <path
         d="m 136.126,173.179 c -0.004,0 -0.008,0 -0.012,0 -0.363,-0.004 -0.655,-0.172 -0.822,-0.469 -0.181,-0.323 -0.176,-0.753 0.013,-1.072 0.171,-0.29 0.461,-0.45 0.816,-0.45 0.006,0 0.01,0 0.015,0 0.362,0.005 0.654,0.171 0.822,0.467 0.181,0.324 0.177,0.754 -0.012,1.072 -0.172,0.291 -0.462,0.452 -0.82,0.452"
         style="fill:#e94724;fill-opacity:1;fill-rule:nonzero;stroke:none;stroke-width:0.1"
         id="path386" />
      <path
         d="m 133.733,170.756 c -0.005,0 -0.01,0 -0.015,0 -0.361,-0.004 -0.654,-0.17 -0.822,-0.467 -0.181,-0.323 -0.177,-0.753 0.012,-1.072 0.172,-0.29 0.463,-0.452 0.82,-0.452 0.004,0 0.008,0 0.013,0 0.362,0.005 0.655,0.173 0.822,0.47 0.181,0.323 0.175,0.753 -0.014,1.071 -0.171,0.291 -0.461,0.45 -0.816,0.45"
         style="fill:#e94724;fill-opacity:1;fill-rule:nonzero;stroke:none;stroke-width:0.1"
         id="path388" />
      <path
         d="m 131.64,168.665 c -0.363,-0.004 -0.655,-0.172 -0.822,-0.469 -0.181,-0.323 -0.176,-0.753 0.013,-1.072 0.171,-0.29 0.462,-0.45 0.816,-0.45 0.006,0 0.01,0 0.016,0 0.362,0.005 0.655,0.173 0.821,0.47 0.182,0.323 0.176,0.753 -0.013,1.071 -0.173,0.295 -0.458,0.465 -0.831,0.45"
         style="fill:#e94724;fill-opacity:1;fill-rule:nonzero;stroke:none;stroke-width:0.1"
         id="path390" />
      <path
         d="m 129.249,165.605 c -0.181,-0.323 -0.176,-0.753 0.013,-1.072 0.172,-0.291 0.462,-0.452 0.819,-0.452 0.005,0 0.009,0 0.013,0 0.363,0.004 0.655,0.172 0.822,0.469 0.181,0.323 0.176,0.753 -0.013,1.072 -0.175,0.295 -0.475,0.465 -0.832,0.45 -0.361,-0.005 -0.653,-0.171 -0.822,-0.467"
         style="fill:#e94724;fill-opacity:1;fill-rule:nonzero;stroke:none;stroke-width:0.1"
         id="path392" />
      <path
         d="m 142.543,175.048 c -0.004,0 -0.009,0 -0.013,0 -0.362,-0.005 -0.655,-0.173 -0.822,-0.47 -0.181,-0.323 -0.175,-0.753 0.013,-1.071 0.173,-0.291 0.463,-0.45 0.818,-0.45 0.005,0 0.01,0 0.015,0 0.361,0.004 0.654,0.17 0.821,0.467 0.181,0.321 0.177,0.753 -0.012,1.072 -0.173,0.29 -0.463,0.452 -0.82,0.452"
         style="fill:#e94724;fill-opacity:1;fill-rule:nonzero;stroke:none;stroke-width:0.1"
         id="path394" />
      <path
         d="m 139.292,169.776 c 0.005,0 0.01,0 0.015,0 0.362,0.004 0.655,0.172 0.822,0.469 0.181,0.323 0.176,0.753 -0.013,1.072 -0.175,0.295 -0.467,0.461 -0.832,0.45 -0.362,-0.005 -0.655,-0.173 -0.822,-0.47 -0.181,-0.323 -0.175,-0.753 0.013,-1.071 0.172,-0.291 0.462,-0.45 0.817,-0.45"
         style="fill:#e94724;fill-opacity:1;fill-rule:nonzero;stroke:none;stroke-width:0.1"
         id="path396" />
      <path
         d="m 136.341,168.942 c -0.005,0 -0.009,0 -0.014,0 -0.362,-0.004 -0.654,-0.172 -0.821,-0.469 -0.182,-0.323 -0.176,-0.753 0.013,-1.072 0.172,-0.29 0.462,-0.45 0.817,-0.45 0.006,0 0.01,0 0.015,0 0.362,0.005 0.654,0.171 0.822,0.468 0.181,0.323 0.176,0.753 -0.012,1.071 -0.172,0.291 -0.464,0.452 -0.82,0.452"
         style="fill:#e94724;fill-opacity:1;fill-rule:nonzero;stroke:none;stroke-width:0.1"
         id="path398" />
      <path
         d="m 134.24,166.729 c -0.004,0 -0.008,0 -0.012,0 -0.363,-0.005 -0.655,-0.173 -0.822,-0.47 -0.182,-0.323 -0.176,-0.753 0.013,-1.071 0.172,-0.291 0.463,-0.45 0.817,-0.45 0.006,0 0.01,0 0.016,0 0.362,0.004 0.653,0.17 0.821,0.467 0.182,0.323 0.176,0.753 -0.012,1.072 -0.172,0.29 -0.463,0.452 -0.821,0.452"
         style="fill:#e94724;fill-opacity:1;fill-rule:nonzero;stroke:none;stroke-width:0.1"
         id="path400" />
      <path
         d="m 132.631,163.531 c -0.361,-0.005 -0.654,-0.17 -0.822,-0.467 -0.181,-0.323 -0.177,-0.753 0.012,-1.072 0.172,-0.29 0.463,-0.452 0.821,-0.452 0.003,0 0.007,0 0.012,0 0.362,0.004 0.655,0.173 0.822,0.469 0.181,0.323 0.175,0.754 -0.014,1.072 -0.171,0.291 -0.461,0.45 -0.816,0.45 -0.005,0 -0.01,0 -0.015,0"
         style="fill:#e94724;fill-opacity:1;fill-rule:nonzero;stroke:none;stroke-width:0.1"
         id="path402" />
      <path
         d="m 140.832,167.997 c -0.181,-0.323 -0.176,-0.753 0.013,-1.072 0.171,-0.29 0.462,-0.449 0.816,-0.449 0.006,0 0.01,0 0.016,0 0.362,0.004 0.653,0.17 0.821,0.467 0.182,0.323 0.177,0.753 -0.012,1.071 -0.172,0.291 -0.462,0.452 -0.82,0.452 -0.004,0 -0.008,0 -0.012,0 -0.363,-0.004 -0.655,-0.172 -0.822,-0.469"
         style="fill:#e94724;fill-opacity:1;fill-rule:nonzero;stroke:none;stroke-width:0.1"
         id="path404" />
      <path
         d="m 138.105,166.231 c -0.181,-0.323 -0.176,-0.753 0.012,-1.072 0.173,-0.29 0.463,-0.452 0.82,-0.452 0.004,0 0.009,0 0.013,0 0.363,0.005 0.655,0.173 0.822,0.47 0.181,0.323 0.176,0.753 -0.013,1.072 -0.171,0.29 -0.462,0.449 -0.816,0.449 -0.006,0 -0.01,0 -0.016,0 -0.361,-0.004 -0.654,-0.17 -0.822,-0.467"
         style="fill:#e94724;fill-opacity:1;fill-rule:nonzero;stroke:none;stroke-width:0.1"
         id="path406" />
      <path
         d="m 137.077,162.092 c 0.181,0.323 0.176,0.753 -0.013,1.072 -0.172,0.291 -0.463,0.45 -0.817,0.45 -0.006,0 -0.01,0 -0.016,0 -0.362,-0.004 -0.654,-0.173 -0.821,-0.469 -0.182,-0.324 -0.176,-0.754 0.013,-1.072 0.172,-0.291 0.462,-0.45 0.817,-0.45 0.006,0 0.01,0 0.015,0 0.363,0.004 0.655,0.173 0.822,0.469"
         style="fill:#e94724;fill-opacity:1;fill-rule:nonzero;stroke:none;stroke-width:0.1"
         id="path408" />
      <path
         d="m 135.32,159.645 c -0.005,0 -0.01,0 -0.015,0 -0.361,-0.004 -0.654,-0.17 -0.822,-0.467 -0.181,-0.323 -0.177,-0.753 0.012,-1.072 0.172,-0.29 0.463,-0.451 0.82,-0.451 0.004,0 0.008,0 0.013,0 0.363,0.004 0.655,0.172 0.823,0.469 0.181,0.323 0.175,0.753 -0.013,1.072 -0.173,0.29 -0.463,0.449 -0.818,0.449"
         style="fill:#e94724;fill-opacity:1;fill-rule:nonzero;stroke:none;stroke-width:0.1"
         id="path410" />
      <path
         d="m 142.415,162.597 c 0.182,0.323 0.177,0.753 -0.012,1.071 -0.172,0.291 -0.462,0.452 -0.819,0.452 -0.005,0 -0.009,0 -0.013,0 -0.363,-0.004 -0.655,-0.172 -0.822,-0.469 -0.181,-0.323 -0.176,-0.753 0.013,-1.072 0.171,-0.29 0.462,-0.449 0.816,-0.449 0.006,0 0.01,0 0.016,0 0.362,0.004 0.653,0.17 0.821,0.467"
         style="fill:#e94724;fill-opacity:1;fill-rule:nonzero;stroke:none;stroke-width:0.1"
         id="path412" />
      <path
         d="m 139.268,158.447 c 0.003,0 0.007,0 0.012,0 0.362,0.004 0.655,0.172 0.822,0.469 0.181,0.323 0.175,0.753 -0.013,1.072 -0.172,0.29 -0.462,0.45 -0.817,0.45 -0.005,0 -0.01,0 -0.015,0 -0.634,-0.009 -0.961,-0.513 -0.955,-1.007 0.005,-0.491 0.338,-0.984 0.966,-0.984"
         style="fill:#e94724;fill-opacity:1;fill-rule:nonzero;stroke:none;stroke-width:0.1"
         id="path414" />
      <path
         d="m 139.267,152.702 c 0.004,0 0.008,0 0.013,0 0.362,0.004 0.655,0.172 0.822,0.469 0.181,0.323 0.175,0.753 -0.013,1.072 -0.172,0.29 -0.462,0.449 -0.817,0.449 -0.005,0 -0.01,0 -0.015,0 -0.361,-0.004 -0.654,-0.17 -0.822,-0.467 -0.181,-0.323 -0.177,-0.753 0.012,-1.071 0.172,-0.291 0.463,-0.452 0.82,-0.452"
         style="fill:#e94724;fill-opacity:1;fill-rule:nonzero;stroke:none;stroke-width:0.1"
         id="path416" />
      <path
         d="m 141.952,157.122 c -0.173,0.29 -0.463,0.45 -0.818,0.45 -0.005,0 -0.01,0 -0.015,0 -0.361,-0.005 -0.654,-0.171 -0.822,-0.467 -0.181,-0.324 -0.176,-0.754 0.012,-1.072 0.172,-0.291 0.464,-0.452 0.821,-0.452 0.004,0 0.008,0 0.013,0 0.362,0.004 0.655,0.172 0.822,0.469 0.181,0.323 0.175,0.753 -0.013,1.072"
         style="fill:#e94724;fill-opacity:1;fill-rule:nonzero;stroke:none;stroke-width:0.1"
         id="path418" />
      <path
         d="m 143.078,147.598 c -0.005,0 -0.01,0 -0.015,0 -0.363,-0.004 -0.655,-0.172 -0.822,-0.469 -0.181,-0.323 -0.176,-0.753 0.013,-1.072 0.172,-0.29 0.463,-0.45 0.817,-0.45 0.006,0 0.01,0 0.016,0 0.362,0.005 0.655,0.173 0.822,0.47 0.181,0.323 0.175,0.753 -0.014,1.072 -0.172,0.29 -0.462,0.449 -0.817,0.449"
         style="fill:#e94724;fill-opacity:1;fill-rule:nonzero;stroke:none;stroke-width:0.1"
         id="path420" />
      <path
         d="m 44.8895,121.044 c -2.4985,-0.644 -3.8,-3.17 -3.1704,-5.613 0.6305,-2.442 2.9922,-4.023 5.4907,-3.379 2.5254,0.652 3.8277,3.178 3.1972,5.621 -0.6304,2.442 -2.9922,4.024 -5.5175,3.371"
         style="fill:#e94724;fill-opacity:1;fill-rule:nonzero;stroke:none;stroke-width:0.1"
         id="path422" />
      <path
         d="m 53.3105,155.882 -15.6773,2.145 0.707,5.169 -3.8906,0.532 -2.025,-14.796 3.8914,-0.532 0.707,5.168 15.6774,-2.145 0.6101,4.459"
         style="fill:#e94724;fill-opacity:1;fill-rule:nonzero;stroke:none;stroke-width:0.1"
         id="path424" />
      <path
         d="m 58.4785,174.651 -7.1308,3.155 2.6332,5.951 7.1312,-3.155 1.8207,4.116 -18.0629,7.992 -1.8215,-4.115 7.236,-3.202 -2.6336,-5.951 -7.2352,3.201 -1.8215,-4.116 18.0637,-7.992 1.8207,4.116"
         style="fill:#e94724;fill-opacity:1;fill-rule:nonzero;stroke:none;stroke-width:0.1"
         id="path426" />
      <path
         d="m 77.5746,204.302 -3.0078,2.525 -5.4199,-6.454 -2.8973,2.432 4.6074,5.489 -3.0949,2.599 -4.6082,-5.488 -3.1176,2.617 5.2528,6.257 -3.0078,2.526 -8.1473,-9.704 15.1273,-12.701 8.3133,9.902"
         style="fill:#e94724;fill-opacity:1;fill-rule:nonzero;stroke:none;stroke-width:0.1"
         id="path428" />
      <path
         d="m 101.29,221.453 -3.2736,7.08 5.9086,2.732 3.274,-7.08 4.086,1.889 -8.292,17.934 -4.086,-1.889 3.321,-7.184 -5.9081,-2.731 -3.3219,7.183 -4.0863,-1.889 8.2918,-17.934 4.0865,1.889"
         style="fill:#e94724;fill-opacity:1;fill-rule:nonzero;stroke:none;stroke-width:0.1"
         id="path430" />
      <path
         d="m 135.193,231.082 -0.585,3.884 -8.337,-1.256 -0.564,3.742 7.089,1.068 -0.603,3.998 -7.088,-1.068 -0.607,4.026 8.081,1.218 -0.586,3.885 -12.532,-1.889 2.944,-19.536 12.788,1.928"
         style="fill:#e94724;fill-opacity:1;fill-rule:nonzero;stroke:none;stroke-width:0.1"
         id="path432" />
      <path
         d="m 152.299,246.395 2.959,-0.361 c 1.822,-0.222 2.534,-1.724 2.374,-3.034 -0.16,-1.309 -1.17,-2.485 -3.133,-2.245 l -2.847,0.347 z m -1.077,-8.822 0.882,-0.107 3.684,-7.441 5.208,-0.635 -4.194,7.762 c 3.257,0.411 5.003,2.653 5.341,5.413 0.396,3.244 -1.257,6.739 -5.81,7.295 l -8.026,0.98 -2.395,-19.608 4.468,-0.546 0.842,6.887"
         style="fill:#e94724;fill-opacity:1;fill-rule:nonzero;stroke:none;stroke-width:0.1"
         id="path434" />
      <path
         d="m 182.023,243.211 -4.219,1.567 -6.876,-18.516 4.22,-1.567 6.875,18.516"
         style="fill:#e94724;fill-opacity:1;fill-rule:nonzero;stroke:none;stroke-width:0.1"
         id="path436" />
      <path
         d="m 192.587,215.352 8.639,13.26 4.372,-2.848 2.144,3.291 -12.515,8.154 -2.145,-3.291 4.373,-2.849 -8.639,-13.26 3.771,-2.457"
         style="fill:#e94724;fill-opacity:1;fill-rule:nonzero;stroke:none;stroke-width:0.1"
         id="path438" />
      <path
         d="m 219.578,212.061 -3.608,-6.304 -2.99,3.289 z m -14.691,-6.731 4.378,2.005 4.669,-5.134 -2.392,-4.19 3.221,-3.543 9.718,18.68 -3.299,3.627 -19.535,-7.88 3.24,-3.565"
         style="fill:#e94724;fill-opacity:1;fill-rule:nonzero;stroke:none;stroke-width:0.1"
         id="path440" />
      <path
         d="m 222.985,178.969 c 2.413,-5.137 7.078,-7.38 13.849,-4.2 l -4.447,9.471 -3.296,-1.548 2.364,-5.033 c -0.168,-0.047 -0.322,-0.056 -0.476,-0.066 -1.8,-0.212 -3.386,1.007 -4.361,3.083 -1.353,2.88 0.206,6.304 3.138,7.681 2.984,1.402 6.433,0.329 7.785,-2.551 0.719,-1.531 0.679,-3.197 0.014,-4.681 l 3.93,-1.827 c 1.137,2.434 1.173,5.459 -0.155,8.288 -2.426,5.163 -8.414,7.259 -13.5,4.871 -5.034,-2.365 -7.27,-8.324 -4.845,-13.488"
         style="fill:#e94724;fill-opacity:1;fill-rule:nonzero;stroke:none;stroke-width:0.1"
         id="path442" />
      <path
         d="m 249.187,163.488 -19.543,-2.888 1.89,-12.792 3.886,0.574 -1.232,8.339 3.744,0.553 1.048,-7.091 3.999,0.591 -1.047,7.091 4.027,0.595 1.195,-8.083 3.886,0.574 -1.853,12.537"
         style="fill:#e94724;fill-opacity:1;fill-rule:nonzero;stroke:none;stroke-width:0.1"
         id="path444" />
      <path
         d="m 238.762,121.045 c -2.525,0.655 -4.89,-0.924 -5.523,-3.367 -0.633,-2.442 0.666,-4.971 3.192,-5.626 2.497,-0.648 4.862,0.932 5.495,3.374 0.634,2.442 -0.665,4.971 -3.164,5.619"
         style="fill:#e94724;fill-opacity:1;fill-rule:nonzero;stroke:none;stroke-width:0.1"
         id="path446" />
      <path
         d="m 68.1891,80.4172 c -1.0012,-0.7672 -2.4309,-1.0703 -3.461,0.2707 l -2.0949,2.7293 4.116,3.1598 2.1121,-2.7508 c 1.0129,-1.3203 0.3285,-2.641 -0.6722,-3.409 z m 3.8929,5.6637 -4.9578,6.4582 -15.6691,-12.0282 2.7406,-3.5711 5.3215,4.0852 2.2172,-2.8879 c 2.7937,-3.6383 6.5972,-3.3211 9.2129,-1.3133 2.5922,1.991 3.9285,5.6184 1.1347,9.2571"
         style="fill:#e94724;fill-opacity:1;fill-rule:nonzero;stroke:none;stroke-width:0.1"
         id="path448" />
      <path
         d="M 87.0219,62.9172 C 86.2293,61.8629 84.7664,61.348 83.1848,62.5379 l -2.2918,1.7242 3.2062,4.2617 2.3832,-1.7929 c 1.4668,-1.1028 1.3324,-2.759 0.5395,-3.8137 z m 2.3023,6.5918 -6.4629,4.8601 -11.8742,-15.7902 3.5977,-2.7051 4.1711,5.5461 0.7101,-0.534 -0.5269,-8.2871 4.1937,-3.1539 0.2473,8.8199 c 3.0265,-1.2718 5.6601,-0.2027 7.332,2.0211 1.9649,2.6129 2.2789,6.4661 -1.3879,9.2231"
         style="fill:#e94724;fill-opacity:1;fill-rule:nonzero;stroke:none;stroke-width:0.1"
         id="path450" />
      <path
         d="m 108.14,46.8898 -4.151,1.5852 4.527,5.6672 z m -14.1939,-3.6617 4.4988,-1.7179 3.0021,3.7628 6.481,-2.475 -0.243,-4.8171 4.471,-1.7071 0.245,21.0492 -4.58,1.7489 -13.8749,-15.8438"
         style="fill:#e94724;fill-opacity:1;fill-rule:nonzero;stroke:none;stroke-width:0.1"
         id="path452" />
      <path
         d="m 135.674,48.559 c 2.058,-0.1629 3.495,-1.2539 4.4,-2.907 l 3.678,2.155 c -1.593,2.7711 -4.484,4.7532 -7.942,5.0258 -5.544,0.4371 -10.358,-3.7258 -10.796,-9.2699 -0.441,-5.6008 3.66,-10.468 9.204,-10.9051 3.458,-0.2726 6.622,1.2031 8.63,3.6902 l -3.293,2.7321 c -1.154,-1.5192 -2.745,-2.3723 -4.832,-2.2071 -3.371,0.2661 -5.45,3.075 -5.193,6.334 0.256,3.2571 2.829,5.6129 6.144,5.352"
         style="fill:#e94724;fill-opacity:1;fill-rule:nonzero;stroke:none;stroke-width:0.1"
         id="path454" />
      <path
         d="m 166.278,55.448 -14.662,-2.85 0.75,-3.8558 5.122,0.9957 3.02,-15.5348 4.419,0.859 -3.021,15.5348 5.122,0.9953 -0.75,3.8558"
         style="fill:#e94724;fill-opacity:1;fill-rule:nonzero;stroke:none;stroke-width:0.1"
         id="path456" />
      <path
         d="m 175.174,58.8039 7.871,-18.1199 4.129,1.7941 -7.871,18.1199 -4.129,-1.7941"
         style="fill:#e94724;fill-opacity:1;fill-rule:nonzero;stroke:none;stroke-width:0.1"
         id="path458" />
      <path
         d="m 205.909,58.5102 c -2.699,-2.0391 -6.118,-1.3172 -8.088,1.2898 -1.971,2.607 -1.61,6.077 1.043,8.082 1.647,1.2442 3.446,1.3821 5.22,0.7469 l 1.321,4.052 c -3.031,1.016 -6.509,0.5793 -9.277,-1.5129 -4.437,-3.352 -5.274,-9.6621 -1.921,-14.0989 3.387,-4.482 9.686,-5.4 14.123,-2.0472 2.767,2.091 4.155,5.2953 4.005,8.4883 l -4.276,-0.1411 c 0.144,-1.9031 -0.48,-3.5972 -2.15,-4.8589"
         style="fill:#e94724;fill-opacity:1;fill-rule:nonzero;stroke:none;stroke-width:0.1"
         id="path460" />
      <path
         d="m 224.458,76.8379 -3.015,2.2891 4.336,5.7089 -3.22,2.445 -4.336,-5.709 -3.242,2.4621 4.942,6.509 -3.128,2.375 -7.665,-10.093 15.734,-11.948 7.82,10.2992 -3.128,2.3758 -5.098,-6.7141"
         style="fill:#e94724;fill-opacity:1;fill-rule:nonzero;stroke:none;stroke-width:0.1"
         id="path462" />
      <path
         d="m 141.837,213.039 c 39.505,0 71.645,-32.14 71.645,-71.645 0,-39.506 -32.14,-71.646 -71.645,-71.646 -39.506,0 -71.646,32.14 -71.646,71.646 0,39.505 32.14,71.645 71.646,71.645 z m 0,-147.9081 c 42.05,0 76.262,34.2113 76.262,76.2631 0,42.051 -34.212,76.261 -76.262,76.261 -42.0515,0 -76.2628,-34.21 -76.2628,-76.261 0,-42.0518 34.2113,-76.2631 76.2628,-76.2631"
         style="fill:#e94724;fill-opacity:1;fill-rule:nonzero;stroke:none;stroke-width:0.1"
         id="path464" />
    </g>
  </g>
</svg>
